<?xml version="1.0" encoding="UTF-8"?>
<svg width="451px" height="242px" viewBox="0 0 451 242" version="1.1" xmlns="http://www.w3.org/2000/svg" xmlns:xlink="http://www.w3.org/1999/xlink">
    <!-- Generator: Sketch 47.1 (45422) - http://www.bohemiancoding.com/sketch -->
    <title>grays</title>
    <desc>Created with Sketch.</desc>
    <defs></defs>
    <g id="Page-1" stroke="none" stroke-width="1" fill="none" fill-rule="evenodd">
        <g id="grays" fill-rule="nonzero">
            <rect id="Rectangle" fill="#DEDEDE" x="0" y="0" width="187.5" height="188"></rect>
            <g id="Group" transform="translate(50.000000, 208.000000)" fill="#FF5556">
                <path d="M35,10.241379 L35,5.826207 C37.0376009,5.735172 38.4639002,5.598622 39.2789406,5.416552 C40.5769679,5.128274 41.6334859,4.551728 42.4485263,3.686897 C43.0069799,3.095169 43.429587,2.306212 43.7163605,1.32 C43.8823873,0.728273 43.9653994,0.288277 43.9653994,0 L49.3310551,0 L49.3310551,33 L42.7202051,33 L42.7202051,10.241379 L35,10.241379 Z M60.4698847,26.217931 L67.3297735,26.217931 L67.3297735,33 L60.4698847,33 L60.4698847,26.217931 Z M73.668945,10.241379 L73.668945,5.826207 C75.706546,5.735172 77.132845,5.598622 77.947886,5.416552 C79.245913,5.128274 80.302431,4.551728 81.117471,3.686897 C81.675925,3.095169 82.098532,2.306212 82.385305,1.32 C82.551332,0.728273 82.634344,0.288277 82.634344,0 L88,0 L88,33 L81.38915,33 L81.38915,10.241379 L73.668945,10.241379 Z" id="1.1"></path>
                <path d="M25,24.1178451 C25,24.6790123 24.8035915,25.1560045 24.4107744,25.5488215 L21.5488215,28.4107744 C21.1560045,28.8035915 20.6790123,29 20.1178451,29 C19.5566779,29 19.0796857,28.8035915 18.6868687,28.4107744 L12.5,22.2239057 L6.31313131,28.4107744 C5.92031425,28.8035915 5.44332211,29 4.88215488,29 C4.32098765,29 3.84399551,28.8035915 3.45117845,28.4107744 L0.589225589,25.5488215 C0.19640853,25.1560045 0,24.6790123 0,24.1178451 C0,23.5566779 0.19640853,23.0796857 0.589225589,22.6868687 L6.77609428,16.5 L0.589225589,10.3131313 C0.19640853,9.92031425 0,9.44332211 0,8.88215488 C0,8.32098765 0.19640853,7.84399551 0.589225589,7.45117845 L3.45117845,4.58922559 C3.84399551,4.19640853 4.32098765,4 4.88215488,4 C5.44332211,4 5.92031425,4.19640853 6.31313131,4.58922559 L12.5,10.7760943 L18.6868687,4.58922559 C19.0796857,4.19640853 19.5566779,4 20.1178451,4 C20.6790123,4 21.1560045,4.19640853 21.5488215,4.58922559 L24.4107744,7.45117845 C24.8035915,7.84399551 25,8.32098765 25,8.88215488 C25,9.44332211 24.8035915,9.92031425 24.4107744,10.3131313 L18.2239057,16.5 L24.4107744,22.6868687 C24.8035915,23.0796857 25,23.5566779 25,24.1178451 Z" id="Shape"></path>
            </g>
            <rect id="Rectangle-Copy" fill="#999999" x="263" y="0" width="187.5" height="188"></rect>
            <g id="Group-2" transform="translate(308.000000, 208.000000)" fill="#FF5556">
                <path d="M36.535675,26.654181 C37.467781,24.45573 39.668128,22.12844 43.136784,19.672241 C46.147027,17.534437 48.095251,16.003126 48.981516,15.078261 C50.341474,13.637897 51.021442,12.061101 51.021442,10.347826 C51.021442,8.952947 50.631797,7.793093 49.852495,6.868227 C49.073194,5.943362 47.95774,5.480936 46.5061,5.480936 C44.519645,5.480936 43.167348,6.216269 42.449168,7.686956 C42.036597,8.536013 41.792114,9.885386 41.715711,11.735117 L35.366728,11.735117 C35.473691,8.930198 35.985578,6.663554 36.902403,4.935117 C38.644371,1.645023 41.73861,0 46.185213,0 C49.69971,0 52.495985,0.966545 54.574122,2.899665 C56.65226,4.832786 57.691313,7.391288 57.691313,10.575251 C57.691313,13.016289 56.957863,15.184383 55.490943,17.079598 C54.528276,18.338022 52.946777,19.74046 50.746396,21.286956 L48.133456,23.129097 C46.498451,24.281388 45.379178,25.115271 44.775601,25.630769 C44.172024,26.146267 43.663958,26.745147 43.251386,27.427424 L57.760074,27.427424 L57.760074,33.135786 L35,33.135786 C35.061122,30.770557 35.573008,28.610043 36.535675,26.654181 Z M62.573383,26.358528 L69.5183,26.358528 L69.5183,33.135786 L62.573383,33.135786 L62.573383,26.358528 Z M81.975601,27.336454 C82.823664,28.230997 83.996419,28.678261 85.4939,28.678261 C86.991381,28.678261 88.164136,28.230997 89.0122,27.336454 C89.860263,26.441913 90.284289,25.183509 90.284289,23.561204 C90.284289,21.878252 89.852623,20.600896 88.989279,19.729097 C88.125936,18.857298 86.960821,18.421404 85.4939,18.421404 C84.02698,18.421404 82.861865,18.857298 81.998522,19.729097 C81.135177,20.600896 80.703512,21.878252 80.703512,23.561204 C80.703512,25.183509 81.127538,26.441913 81.975601,27.336454 Z M75.191127,18.967224 C76.039191,17.466213 77.280707,16.336681 78.915712,15.578595 C77.311267,14.517274 76.268395,13.368791 75.787061,12.13311 C75.305728,10.89743 75.065065,9.741365 75.065065,8.664883 C75.065065,6.26933 75.974236,4.226318 77.792607,2.535786 C79.610976,0.845253 82.178049,0 85.4939,0 C88.809752,0 91.376824,0.845253 93.195194,2.535786 C95.013564,4.226318 95.922736,6.26933 95.922736,8.664883 C95.922736,9.741365 95.682073,10.89743 95.20074,12.13311 C94.719406,13.368791 93.676533,14.441467 92.072089,15.35117 C93.707094,16.260874 94.93715,17.466213 95.762292,18.967224 C96.587435,20.468234 97,22.14358 97,23.993311 C97,26.767906 95.964767,29.12931 93.89427,31.077591 C91.823773,33.025873 88.931997,34 85.218854,34 C81.505712,34 78.694156,33.025873 76.784104,31.077591 C74.874051,29.12931 73.919039,26.767906 73.919039,23.993311 C73.919039,22.14358 74.343065,20.468234 75.191127,18.967224 Z M82.411091,12.326421 C83.152191,13.084508 84.179784,13.463545 85.4939,13.463545 C86.823297,13.463545 87.85089,13.084508 88.57671,12.326421 C89.30253,11.568335 89.665434,10.590418 89.665434,9.392642 C89.665434,8.088734 89.30253,7.069123 88.57671,6.333779 C87.85089,5.598435 86.823297,5.230769 85.4939,5.230769 C84.179784,5.230769 83.152191,5.598435 82.411091,6.333779 C81.66999,7.069123 81.299446,8.088734 81.299446,9.392642 C81.299446,10.590418 81.66999,11.568335 82.411091,12.326421 Z" id="2.8"></path>
                <path d="M25,24.1178451 C25,24.6790123 24.8035915,25.1560045 24.4107744,25.5488215 L21.5488215,28.4107744 C21.1560045,28.8035915 20.6790123,29 20.1178451,29 C19.5566779,29 19.0796857,28.8035915 18.6868687,28.4107744 L12.5,22.2239057 L6.31313131,28.4107744 C5.92031425,28.8035915 5.44332211,29 4.88215488,29 C4.32098765,29 3.84399551,28.8035915 3.45117845,28.4107744 L0.589225589,25.5488215 C0.19640853,25.1560045 0,24.6790123 0,24.1178451 C0,23.5566779 0.19640853,23.0796857 0.589225589,22.6868687 L6.77609428,16.5 L0.589225589,10.3131313 C0.19640853,9.92031425 0,9.44332211 0,8.88215488 C0,8.32098765 0.19640853,7.84399551 0.589225589,7.45117845 L3.45117845,4.58922559 C3.84399551,4.19640853 4.32098765,4 4.88215488,4 C5.44332211,4 5.92031425,4.19640853 6.31313131,4.58922559 L12.5,10.7760943 L18.6868687,4.58922559 C19.0796857,4.19640853 19.5566779,4 20.1178451,4 C20.6790123,4 21.1560045,4.19640853 21.5488215,4.58922559 L24.4107744,7.45117845 C24.8035915,7.84399551 25,8.32098765 25,8.88215488 C25,9.44332211 24.8035915,9.92031425 24.4107744,10.3131313 L18.2239057,16.5 L24.4107744,22.6868687 C24.8035915,23.0796857 25,23.5566779 25,24.1178451 Z" id="Shape-Copy"></path>
            </g>
        </g>
    </g>
</svg>