<?xml version="1.0" encoding="UTF-8"?>
<svg width="192px" height="200px" viewBox="0 0 192 200" version="1.1" xmlns="http://www.w3.org/2000/svg" xmlns:xlink="http://www.w3.org/1999/xlink">
    <!-- Generator: Sketch 47.1 (45422) - http://www.bohemiancoding.com/sketch -->
    <title>Shape</title>
    <desc>Created with Sketch.</desc>
    <defs></defs>
    <g id="Page-1" stroke="none" stroke-width="1" fill="none" fill-rule="evenodd">
        <g id="magic" fill-rule="nonzero" fill="#4A4A4A">
            <path d="M118.458,122.566 L127.264,187.922 C127.482,189.536 126.506,191.07 124.956,191.558 C107.226,197.152 88.734,199.988 70,199.988 C51.262,199.988 32.772,197.152 15.042,191.558 C13.492,191.07 12.516,189.534 12.734,187.922 L21.496,122.882 C33.898,126.37 50.778,128.526 69.416,128.526 C88.616,128.528 105.964,126.246 118.458,122.566 Z M138.3,95.128 C138.3,106.164 107.456,115.11 69.414,115.11 C31.37,115.11 0.528,106.164 0.528,95.128 C0.528,84.088 31.37,75.144 69.414,75.144 C107.458,75.144 138.3,84.088 138.3,95.128 Z M115.996,92.418 C115.996,88.682 95.14,85.658 69.414,85.658 C43.686,85.658 22.83,88.682 22.83,92.418 C22.83,96.15 43.684,99.178 69.414,99.178 C95.14,99.178 115.996,96.152 115.996,92.418 Z M69.534,61.92 L71.57,71.376 L149.424,54.636 L147.326,45.192 L69.534,61.92 Z M189.438,36.136 L150.594,44.488 L152.692,53.93 L191.474,45.594 L189.438,36.136 Z M59.806,36.284 L52.376,38.04 L58.29,42.87 L57.664,50.478 L64.084,46.348 L71.126,49.296 L69.182,41.916 L74.16,36.126 L66.54,35.694 L62.572,29.17 L59.806,36.284 Z M70.624,27.216 L75.594,25.846 L79.54,29.168 L79.778,24.018 L84.156,21.288 L79.328,19.476 L78.086,14.468 L74.868,18.5 L69.722,18.132 L72.562,22.438 L70.624,27.216 Z M57.636,14.776 L61.13,10.984 L66.236,11.716 L63.71,7.22 L65.984,2.588 L60.928,3.604 L57.224,0.01 L56.626,5.134 L52.066,7.546 L56.754,9.698 L57.636,14.776 Z" id="Shape"></path>
        </g>
    </g>
</svg>