<?xml version="1.0" encoding="UTF-8"?>
<svg width="83px" height="91px" viewBox="0 0 83 91" version="1.1" xmlns="http://www.w3.org/2000/svg" xmlns:xlink="http://www.w3.org/1999/xlink">
    <!-- Generator: Sketch 47.1 (45422) - http://www.bohemiancoding.com/sketch -->
    <title>point</title>
    <desc>Created with Sketch.</desc>
    <defs></defs>
    <g id="Page-1" stroke="none" stroke-width="1" fill="none" fill-rule="evenodd">
        <g id="point" fill-rule="nonzero" fill="#4A4A4A">
            <path d="M58.848,32.887 C58.771,32.764 58.677,32.658 58.577,32.562 L58.577,32.064 C58.577,26.738 53.557,22.405 47.387,22.405 C42.668,22.405 38.632,24.943 36.989,28.517 C35,27.495 31.765,26.433 28.018,27.525 C23.429,28.864 21.623,33.069 20.967,35.358 C19.032,35.459 15.558,35.992 11.984,38.267 C7.811,40.921 7.508,46.346 7.686,49.281 C6.295,49.453 4.415,49.898 2.734,51.019 C-0.887,53.43 1.547,60.313 2.076,61.682 L6.688,73.32 C6.771,73.529 8.806,78.468 14.964,80.684 C16.981,81.41 19.42,82.115 21.891,82.115 C24.691,82.115 27.532,81.209 29.846,78.407 C30.277,78.452 30.721,78.485 31.188,78.485 C31.221,78.485 31.255,78.481 31.288,78.481 C28.883,82.044 29.02,85.924 30.436,88.434 C31.345,90.045 32.74,90.964 34.173,90.964 C34.506,90.964 34.84,90.914 35.17,90.812 C37.095,90.219 48.988,89.462 56.032,89.126 C56.18,89.119 56.325,89.093 56.466,89.05 C57.094,88.855 62.916,86.671 73.66,70.111 C77.798,63.734 75.491,58.443 73.58,56.382 L58.848,32.887 Z M47.387,25.907 C51.626,25.907 55.075,28.67 55.075,32.064 L55.075,39.529 C55.075,43.08 51.541,46.194 47.511,46.194 C43.839,46.194 40.471,43.63 39.822,40.581 C39.874,39.278 40.958,37.36 42.759,36.31 C44.802,35.119 47.268,35.271 49.891,36.753 C50.732,37.229 51.801,36.932 52.277,36.09 C52.753,35.248 52.457,34.18 51.614,33.704 C46.602,30.871 42.808,32.226 40.993,33.285 C40.534,33.553 40.109,33.871 39.701,34.211 L39.701,32.064 C39.699,28.669 43.146,25.907 47.387,25.907 Z M27.28,74.206 C22.751,71.973 20.252,69.304 19.69,68.66 L14.523,57.067 C14.129,56.183 13.095,55.789 12.211,56.179 C11.327,56.573 10.93,57.609 11.324,58.492 L16.592,70.31 C16.651,70.443 16.725,70.567 16.815,70.678 C16.934,70.83 19.803,74.424 25.771,77.366 C25.781,77.371 25.825,77.389 25.856,77.403 C23.638,79.022 20.618,78.999 16.151,77.389 C11.528,75.725 9.999,72.16 9.942,72.024 L5.337,60.404 C4.264,57.631 3.936,54.425 4.675,53.932 C6.758,52.544 9.493,52.685 9.515,52.686 C10.055,52.73 10.58,52.504 10.939,52.1 C11.298,51.698 11.451,51.148 11.352,50.617 C11.339,50.547 10.102,43.614 13.863,41.221 C18.082,38.536 22.162,38.848 22.195,38.853 C23.134,38.946 23.967,38.279 24.095,37.349 C24.102,37.297 24.866,32.093 28.997,30.887 C32.251,29.939 35.008,31.325 36.195,32.086 L36.195,39.528 C36.195,40.023 36.254,40.509 36.338,40.989 C36.342,41.012 36.345,41.035 36.351,41.058 C36.75,43.217 37.958,45.197 39.681,46.715 L43.304,57.997 C43.452,58.458 43.784,58.838 44.224,59.045 C48.535,61.079 52.706,63.736 53.127,64.641 C53.327,65.751 52.146,68.145 51.225,69.536 C51.101,69.607 50.771,69.761 50.122,69.889 C49.77,69.903 48.975,69.949 47.903,70.079 C46.256,70.091 43.882,69.891 40.479,69.198 C31.2,67.306 30.279,61.497 30.247,61.269 C30.236,61.174 30.217,61.081 30.191,60.991 L25.242,43.756 C24.976,42.826 24.006,42.291 23.076,42.556 C22.146,42.824 21.609,43.793 21.876,44.723 L26.795,61.851 C26.987,62.985 28.429,69.058 36.951,71.864 C36.094,73.161 35.021,74.059 33.747,74.542 C30.675,75.704 27.282,74.206 27.28,74.206 Z M43.04,86.409 C40.5,86.603 38.094,86.824 36.367,87.056 C36.45,86.353 36.648,85.769 36.989,85.342 C37.992,84.081 40.185,83.864 41.947,83.692 L42.562,83.608 C42.85,83.848 43.078,85.085 43.04,86.409 Z M70.723,68.205 C61.646,82.194 56.439,85.208 55.564,85.643 C54.276,85.706 50.559,85.894 46.551,86.16 C46.56,84.662 46.33,82.437 45.056,81.15 C44.3,80.385 43.258,80.039 42.154,80.152 L41.606,80.208 C39.443,80.421 36.175,80.742 34.249,83.162 C33.692,83.862 33.304,84.685 33.071,85.615 C32.813,84.503 32.537,81.525 35.821,78.594 C39.698,75.132 45.18,73.969 48.19,73.58 C52.165,73.507 53.544,72.357 54.003,71.687 C54.005,71.685 54.005,71.682 54.007,71.68 C54.339,71.198 55.447,69.514 56.117,67.597 C57.505,64.695 57.666,60.853 56.476,58.365 C56.061,57.491 55.013,57.123 54.142,57.54 C53.269,57.957 52.9,59.004 53.317,59.875 C53.379,60.005 53.424,60.154 53.474,60.3 C51.495,58.825 48.861,57.395 46.408,56.209 L44.157,49.198 C45.226,49.519 46.353,49.697 47.51,49.697 C53.508,49.697 58.577,45.04 58.577,39.53 L58.577,39.05 L70.708,58.393 C70.776,58.503 70.858,58.606 70.952,58.698 C70.987,58.735 74.505,62.376 70.723,68.205 Z" id="Shape"></path>
            <path d="M26.189,65.583 L22.805,67.199 C21.932,67.615 21.562,68.661 21.978,69.533 C22.279,70.162 22.906,70.531 23.56,70.531 C23.813,70.531 24.07,70.475 24.313,70.359 L27.697,68.744 C28.57,68.327 28.94,67.283 28.524,66.409 C28.107,65.538 27.062,65.169 26.189,65.583 Z" id="Shape"></path>
            <path d="M34.563,64.253 C34.906,64.253 35.253,64.152 35.556,63.942 L39.054,61.528 C39.849,60.978 40.05,59.887 39.5,59.091 C38.95,58.295 37.859,58.095 37.064,58.644 L33.567,61.059 C32.77,61.61 32.571,62.7 33.12,63.497 C33.46,63.988 34.007,64.253 34.563,64.253 Z" id="Shape"></path>
            <path d="M15.43,75.543 C15.603,75.543 15.778,75.518 15.952,75.464 L16.708,75.228 C17.631,74.942 18.147,73.959 17.86,73.037 C17.572,72.112 16.592,71.597 15.668,71.885 L14.911,72.12 C13.988,72.408 13.472,73.389 13.76,74.313 C13.992,75.063 14.684,75.543 15.43,75.543 Z" id="Shape"></path>
            <path d="M31.574,20.764 C31.917,21.117 32.373,21.295 32.829,21.295 C33.269,21.295 33.709,21.13 34.05,20.799 C34.744,20.124 34.759,19.016 34.085,18.323 L25.573,9.568 C24.898,8.875 23.789,8.86 23.097,9.533 C22.403,10.207 22.388,11.316 23.062,12.009 L31.574,20.764 Z" id="Shape"></path>
            <path d="M48.664,16.917 C49.631,16.917 50.415,16.133 50.415,15.167 L50.415,2.033 C50.415,1.066 49.631,0.282 48.664,0.282 C47.697,0.282 46.912,1.066 46.912,2.033 L46.912,15.166 C46.912,16.133 47.697,16.917 48.664,16.917 Z" id="Shape"></path>
            <path d="M63.261,21.295 C63.707,21.295 64.153,21.126 64.494,20.787 L73.765,11.595 C74.453,10.914 74.457,9.805 73.776,9.118 C73.095,8.431 71.986,8.428 71.299,9.108 L62.028,18.3 C61.341,18.981 61.337,20.089 62.017,20.776 C62.36,21.122 62.811,21.295 63.261,21.295 Z" id="Shape"></path>
            <path d="M81.25,31.815 L67.318,31.815 C66.352,31.815 65.567,32.598 65.567,33.565 C65.567,34.532 66.352,35.316 67.318,35.316 L81.25,35.316 C82.216,35.316 83.001,34.532 83.001,33.565 C83.001,32.598 82.216,31.815 81.25,31.815 Z" id="Shape"></path>
        </g>
    </g>
</svg>