<?xml version="1.0" encoding="UTF-8"?>
<svg width="88px" height="48px" viewBox="0 0 88 48" version="1.1" xmlns="http://www.w3.org/2000/svg" xmlns:xlink="http://www.w3.org/1999/xlink">
    <!-- Generator: Sketch 47.1 (45422) - http://www.bohemiancoding.com/sketch -->
    <title>rainbow</title>
    <desc>Created with Sketch.</desc>
    <defs></defs>
    <g id="Page-1" stroke="none" stroke-width="1" fill="none" fill-rule="evenodd">
        <g id="rainbow" fill="#4A4A4A">
            <path d="M44,21.00002 C31.321128,21.00002 21,31.32112 21,44.00002 L21,46.00002 L25,46.00002 L25,44.00002 C25,33.48282 33.482872,25.00002 44,25.00002 C54.517128,25.00002 63,33.48282 63,44.00002 L63,46.00002 L67,46.00002 L67,44.00002 C67,31.32112 56.678872,21.00002 44,21.00002 Z" id="Shape-path" fill-rule="nonzero"></path>
            <path d="M44,13.99999 C27.455128,13.99999 14,27.45512 14,44.00002 L14,46.00002 L18,46.00002 L18,44.00002 C18,29.61682 29.616872,17.99999 44,17.99999 C58.383128,17.99999 70,29.61682 70,44.00002 L70,46.00002 L74,46.00002 L74,44.00002 C74,27.45512 60.544872,13.99999 44,13.99999 Z" id="Shape-path" fill-rule="nonzero"></path>
            <path d="M44,6.99999 C23.589128,6.99999 7,23.58912 7,44.00002 L7,46.00002 L11,46.00002 L11,44.00002 C11,25.75082 25.750872,10.99999 44,10.99999 C62.249128,10.99999 77,25.75082 77,44.00002 L77,46.00002 L81,46.00002 L81,44.00002 C81,23.58912 64.410872,6.99999 44,6.99999 Z" id="Shape-path" fill-rule="nonzero"></path>
            <path d="M44,-1e-05 C19.723127,-1e-05 0,19.72309 0,44.00002 L0,46.00002 L3.9999999,46.00002 L3.9999999,44.00002 C3.9999999,21.88482 21.884873,3.99999 44,3.99999 C66.115127,3.99999 84,21.88482 84,44.00002 L84,46.00002 L88,46.00002 L88,44.00002 C88,19.72309 68.276873,-1e-05 44,-1e-05 Z" id="Shape" fill-rule="nonzero"></path>
            <circle id="Oval" cx="2" cy="46" r="2"></circle>
            <circle id="Oval-Copy" cx="9" cy="46" r="2"></circle>
            <circle id="Oval-Copy-2" cx="16" cy="46" r="2"></circle>
            <circle id="Oval-Copy-3" cx="23" cy="46" r="2"></circle>
            <circle id="Oval-Copy-7" cx="65" cy="46" r="2"></circle>
            <circle id="Oval-Copy-6" cx="72" cy="46" r="2"></circle>
            <circle id="Oval-Copy-5" cx="79" cy="46" r="2"></circle>
            <circle id="Oval-Copy-4" cx="86" cy="46" r="2"></circle>
        </g>
    </g>
</svg>