<svg id="Layer_1" data-name="Layer 1" xmlns="http://www.w3.org/2000/svg" viewBox="0 0 800 410"><defs><style>.cls-1{fill:#dedede;}.cls-2{isolation:isolate;}.cls-3{fill:#4a4a4a;}.cls-4,.cls-5{fill:none;stroke-miterlimit:10;stroke-width:2px;}.cls-4{stroke:#4a4a4a;}.cls-5{stroke:#f55;}.cls-6{fill:#f55;}</style></defs><title>Artboard 1</title><polygon class="cls-1" points="117 208 626 372.87 626 43.13 117 208"/><g class="cls-2"><g class="cls-2"><path class="cls-3" d="M22.83,195.25h4.94v23.51H22.83Z"/><path class="cls-3" d="M34.05,216.71a10.77,10.77,0,0,1-2-6.84,11,11,0,0,1,1-4.93,8.22,8.22,0,0,1,2.75-3.28,6.36,6.36,0,0,1,3.62-1.15,5.54,5.54,0,0,1,2.41.47A7.9,7.9,0,0,1,44,202.42l-.18-2.78v-6.19h4.93v25.31h-4l-.36-1.84h-.11a8.42,8.42,0,0,1-2.29,1.64,5.76,5.76,0,0,1-2.57.63A6.43,6.43,0,0,1,34.05,216.71Zm8.26-2a5.22,5.22,0,0,0,1.48-1.32V205.8a4.55,4.55,0,0,0-3.17-1.26,3,3,0,0,0-2.49,1.37,6.48,6.48,0,0,0-1,3.89,7.28,7.28,0,0,0,.9,4,2.92,2.92,0,0,0,2.59,1.35A3.52,3.52,0,0,0,42.31,214.75Z"/></g><g class="cls-2"><path class="cls-3" d="M68.12,211.27h-11a4.62,4.62,0,0,0,1.74,3.13,5.3,5.3,0,0,0,3.22,1,7.79,7.79,0,0,0,4-1.19l1.62,3a11.11,11.11,0,0,1-6.22,2,9.38,9.38,0,0,1-4.56-1.11,8.11,8.11,0,0,1-3.2-3.24,10.17,10.17,0,0,1-1.17-5,10,10,0,0,1,1.17-4.93,8.48,8.48,0,0,1,3.08-3.28,7.69,7.69,0,0,1,4.06-1.15,6.78,6.78,0,0,1,5.58,2.36,9.37,9.37,0,0,1,2,6.17A9.09,9.09,0,0,1,68.12,211.27Zm-4-3.27a4.22,4.22,0,0,0-.8-2.72,2.89,2.89,0,0,0-2.41-1,3.41,3.41,0,0,0-2.36.92A4.85,4.85,0,0,0,57.18,208Z"/></g><g class="cls-2"><path class="cls-3" d="M72.24,217.68a5.29,5.29,0,0,1-1.46-3.82,5,5,0,0,1,2.42-4.41q2.4-1.56,7.74-2.14a2.65,2.65,0,0,0-3-2.88,6.55,6.55,0,0,0-2.26.43,17,17,0,0,0-2.52,1.23l-1.77-3.24a14.17,14.17,0,0,1,7.49-2.34,6.51,6.51,0,0,1,5.18,2q1.77,2,1.77,6v10.3h-4l-.36-1.87h-.11a8.18,8.18,0,0,1-5.29,2.3A5.08,5.08,0,0,1,72.24,217.68ZM79.33,215a7.93,7.93,0,0,0,1.61-1.24V210.3a11,11,0,0,0-4.18,1.19,2.31,2.31,0,0,0-1.26,2,1.74,1.74,0,0,0,.58,1.42,2.45,2.45,0,0,0,1.62.49A3.22,3.22,0,0,0,79.33,215Z"/></g></g><g class="cls-2"><g class="cls-2"><path class="cls-3" d="M349.85,200.94h-6.06v-1.89H358.1v1.89h-6v17.82h-2.22Z"/><path class="cls-3" d="M361.52,200.67a1.5,1.5,0,0,1-.42-1.11,1.39,1.39,0,0,1,.42-1.06,1.63,1.63,0,0,1,2.16,0,1.39,1.39,0,0,1,.42,1.06,1.5,1.5,0,0,1-.42,1.11,1.6,1.6,0,0,1-2.16,0Zm0,3.54h2.16v14.55h-2.16Z"/><path class="cls-3" d="M368.75,204.21h1.8l.18,2.16h.09q2.31-2.52,4.53-2.52a3.84,3.84,0,0,1,4,2.82,11.69,11.69,0,0,1,2.43-2.1,4.53,4.53,0,0,1,2.4-.72q4.41,0,4.41,5.67v9.24h-2.19v-9a5.32,5.32,0,0,0-.69-3.06,2.48,2.48,0,0,0-2.16-1q-1.71,0-3.81,2.34v10.65h-2.19v-9a5.29,5.29,0,0,0-.69-3,2.41,2.41,0,0,0-2.13-1q-1.71,0-3.84,2.34v10.65h-2.16Z"/><path class="cls-3" d="M404.51,212H394.46a5.83,5.83,0,0,0,1.57,4,4.79,4.79,0,0,0,3.5,1.41,6.6,6.6,0,0,0,3.69-1.17l.81,1.44a10.87,10.87,0,0,1-2.22,1.09,7.58,7.58,0,0,1-2.55.41,7,7,0,0,1-3.5-.91,6.54,6.54,0,0,1-2.49-2.66,9.4,9.4,0,0,1,0-8.07,6.89,6.89,0,0,1,2.42-2.69,6,6,0,0,1,3.18-.94,5.18,5.18,0,0,1,4.21,1.82,7.55,7.55,0,0,1,1.52,5A8.2,8.2,0,0,1,404.51,212Zm-1.86-1.59a5.53,5.53,0,0,0-1-3.54,3.34,3.34,0,0,0-2.76-1.23,4,4,0,0,0-2.88,1.23,5.57,5.57,0,0,0-1.5,3.54Z"/><path class="cls-3" d="M428.69,219.12a14.37,14.37,0,0,1-4.44-2.31,8.11,8.11,0,0,1-5.61,2.31,6.63,6.63,0,0,1-3.06-.69,5.21,5.21,0,0,1-2.12-1.93,5.26,5.26,0,0,1-.76-2.81,4.87,4.87,0,0,1,1-3.11,14.07,14.07,0,0,1,2.9-2.62,10.26,10.26,0,0,1-1.32-4.65,4.62,4.62,0,0,1,1.24-3.3,4.21,4.21,0,0,1,3.2-1.32,3.57,3.57,0,0,1,2.73,1.05,3.86,3.86,0,0,1,1,2.76,4.23,4.23,0,0,1-.62,2.22,8,8,0,0,1-1.51,1.82c-.6.52-1.38,1.13-2.34,1.81a21.56,21.56,0,0,0,2.29,3.11,26.82,26.82,0,0,0,2.81,2.74,16.75,16.75,0,0,0,2.88-6h2a22,22,0,0,1-3.45,7.14,13.41,13.41,0,0,0,3.72,1.95ZM416,216.3a4.16,4.16,0,0,0,2.88,1,6,6,0,0,0,3.93-1.71,27.08,27.08,0,0,1-5.31-6.15,10.24,10.24,0,0,0-2,2,3.67,3.67,0,0,0,.48,4.83Zm2.19-9.42a15.38,15.38,0,0,0,2.59-2.13,3.15,3.15,0,0,0,.89-2.19,2.68,2.68,0,0,0-.48-1.62,1.66,1.66,0,0,0-1.44-.66,2.25,2.25,0,0,0-1.83.84,3.24,3.24,0,0,0-.69,2.13A8.56,8.56,0,0,0,418.19,206.88Z"/><path class="cls-3" d="M441.39,217.89a8.26,8.26,0,0,1-3-3.54,13.93,13.93,0,0,1,0-10.85,8.39,8.39,0,0,1,3.09-3.57,8.3,8.3,0,0,1,4.47-1.24,6.68,6.68,0,0,1,3,.69,7.81,7.81,0,0,1,2.31,1.71l-1.23,1.47a5.29,5.29,0,0,0-4.08-1.92,5.72,5.72,0,0,0-3.36,1,6.55,6.55,0,0,0-2.24,2.86,10.92,10.92,0,0,0-.79,4.36,11.56,11.56,0,0,0,.76,4.39,6.46,6.46,0,0,0,2.19,2.9,5.61,5.61,0,0,0,3.35,1,5.44,5.44,0,0,0,2.5-.57,7.8,7.8,0,0,0,2.18-1.71l1.23,1.38a8.32,8.32,0,0,1-2.67,2.13,7.47,7.47,0,0,1-3.33.72A8,8,0,0,1,441.39,217.89Z"/></g><g class="cls-2"><path class="cls-3" d="M457.55,218.21a6.6,6.6,0,0,1-2.44-2.65,8.51,8.51,0,0,1-.92-4.06,8.65,8.65,0,0,1,.92-4.08,6.56,6.56,0,0,1,2.44-2.66,6.55,6.55,0,0,1,6.66,0,6.72,6.72,0,0,1,2.45,2.66,8.77,8.77,0,0,1,.91,4.08,8.63,8.63,0,0,1-.91,4.06,6.76,6.76,0,0,1-2.45,2.65,6.55,6.55,0,0,1-6.66,0Zm5.62-1.64a4.76,4.76,0,0,0,1.58-2,8.34,8.34,0,0,0,0-6.06,4.85,4.85,0,0,0-1.58-2.05,3.93,3.93,0,0,0-4.59,0,4.72,4.72,0,0,0-1.55,2.05,7.58,7.58,0,0,0-.56,3,6.68,6.68,0,0,0,1.23,4.2,4,4,0,0,0,5.47.87Z"/></g><g class="cls-2"><path class="cls-3" d="M472.28,218.56a8.76,8.76,0,0,1-2.49-1.45l1.11-1.47A9.52,9.52,0,0,0,473,217a5.59,5.59,0,0,0,2.28.45,3.24,3.24,0,0,0,2.22-.69,2.22,2.22,0,0,0,.78-1.74,2,2,0,0,0-.88-1.68,10.53,10.53,0,0,0-2.51-1.2,12.45,12.45,0,0,1-3.24-1.64,3,3,0,0,1-1.17-2.53,3.7,3.7,0,0,1,1.34-2.93,5.37,5.37,0,0,1,3.61-1.15,6.4,6.4,0,0,1,2.37.45,7.86,7.86,0,0,1,2,1.17l-1,1.41a8.51,8.51,0,0,0-1.65-1,4.34,4.34,0,0,0-1.71-.33,3.05,3.05,0,0,0-2.1.64,2.06,2.06,0,0,0-.72,1.58A1.64,1.64,0,0,0,473,209a3.07,3.07,0,0,0,1.07.76c.42.2,1,.44,1.77.74a22.68,22.68,0,0,1,2.4,1,4.46,4.46,0,0,1,1.5,1.28,3.35,3.35,0,0,1,.63,2.11,3.82,3.82,0,0,1-.62,2.14,4.14,4.14,0,0,1-1.79,1.55,6.43,6.43,0,0,1-2.81.57A7.88,7.88,0,0,1,472.28,218.56Z"/></g><g class="cls-2"><path class="cls-3" d="M485,217.89a5.73,5.73,0,0,1-.93-3.51V206h-2.19v-1.65l2.28-.15.27-4.11h1.83v4.11h4V206h-4v8.43a3.66,3.66,0,0,0,.52,2.16,2.07,2.07,0,0,0,1.79.72,5.15,5.15,0,0,0,1.68-.39l.45,1.65a8.74,8.74,0,0,1-2.61.54A3.63,3.63,0,0,1,485,217.89Z"/></g></g><g class="cls-2"><g class="cls-2"><path class="cls-3" d="M657.19,195.25H665a11.57,11.57,0,0,1,6.75,1.75q2.51,1.74,2.5,5.7a7,7,0,0,1-2.55,5.87,10.4,10.4,0,0,1-6.55,2h-3.06v8.21h-4.94Zm7.67,11.38q4.6,0,4.61-3.93a3.1,3.1,0,0,0-1.17-2.7,6.25,6.25,0,0,0-3.58-.82h-2.59v7.45Z"/></g><g class="cls-2"><path class="cls-3" d="M678.11,200.94h4l.36,3.13h.15a7.27,7.27,0,0,1,2.28-2.64,4.8,4.8,0,0,1,2.76-.92,5.3,5.3,0,0,1,2.09.36l-.83,4.25c-.07,0-.29-.08-.65-.17a5.67,5.67,0,0,0-1.22-.12,3.6,3.6,0,0,0-2.24.83,6,6,0,0,0-1.8,2.59v10.51h-4.89Z"/></g><g class="cls-2"><path class="cls-3" d="M695,218.08a8.33,8.33,0,0,1-3.15-3.24,11.06,11.06,0,0,1,0-10,8.33,8.33,0,0,1,3.15-3.24,8.71,8.71,0,0,1,8.51,0,8.23,8.23,0,0,1,3.17,3.26,11,11,0,0,1,0,10,8.3,8.3,0,0,1-3.17,3.24,8.71,8.71,0,0,1-8.51,0Zm6.89-4.31a7,7,0,0,0,.94-3.9,7.18,7.18,0,0,0-.94-3.93,3.13,3.13,0,0,0-5.27,0,7.19,7.19,0,0,0-.92,3.93,7.06,7.06,0,0,0,.92,3.9,3.14,3.14,0,0,0,5.27,0Z"/><path class="cls-3" d="M712.66,216.71a10.77,10.77,0,0,1-2-6.84,11,11,0,0,1,1-4.93,8.14,8.14,0,0,1,2.75-3.28,6.36,6.36,0,0,1,3.62-1.15,5.54,5.54,0,0,1,2.41.47,7.86,7.86,0,0,1,2.05,1.44l-.18-2.78v-6.19h4.94v25.31h-4l-.36-1.84h-.1a8.58,8.58,0,0,1-2.29,1.64,5.76,5.76,0,0,1-2.57.63A6.4,6.4,0,0,1,712.66,216.71Zm8.26-2a5.19,5.19,0,0,0,1.47-1.32V205.8a4.51,4.51,0,0,0-3.16-1.26,3,3,0,0,0-2.49,1.37,6.48,6.48,0,0,0-1,3.89,7.28,7.28,0,0,0,.9,4,2.94,2.94,0,0,0,2.6,1.35A3.55,3.55,0,0,0,720.92,214.75Z"/><path class="cls-3" d="M733.36,217.34A8.94,8.94,0,0,1,732,212V200.94h4.89v10.48a4.87,4.87,0,0,0,.58,2.75,2.08,2.08,0,0,0,1.83.81,3.16,3.16,0,0,0,1.79-.49,7.51,7.51,0,0,0,1.63-1.63V200.94h4.9v17.82h-4l-.36-2.52h-.14a9.86,9.86,0,0,1-2.56,2.2,6.09,6.09,0,0,1-3.06.75A4.8,4.8,0,0,1,733.36,217.34Z"/></g><g class="cls-2"><path class="cls-3" d="M755.69,218.08a8,8,0,0,1-3.12-3.23,10.4,10.4,0,0,1-1.13-5,9.75,9.75,0,0,1,1.24-5,8.49,8.49,0,0,1,3.33-3.24,9.59,9.59,0,0,1,4.57-1.11,7.88,7.88,0,0,1,5.22,1.94l-2.34,3.17a5.7,5.7,0,0,0-1.29-.85,3.19,3.19,0,0,0-1.3-.27,4,4,0,0,0-3.19,1.46,7,7,0,0,0,0,7.78,3.72,3.72,0,0,0,3,1.46,5.59,5.59,0,0,0,3.38-1.37L766,217a8.71,8.71,0,0,1-2.79,1.62,9.21,9.21,0,0,1-3.08.54A8.94,8.94,0,0,1,755.69,218.08Z"/></g><g class="cls-2"><path class="cls-3" d="M771,217.41a7.74,7.74,0,0,1-1.44-5v-7.59H767.1v-3.67l2.73-.22.58-4.75h4.07v4.75h4.35v3.89h-4.35v7.56q0,2.91,2.37,2.91a5.35,5.35,0,0,0,1.77-.36l.79,3.6a11.92,11.92,0,0,1-3.85.65A5.48,5.48,0,0,1,771,217.41Z"/></g></g><line class="cls-4" x1="197" y1="208" x2="331" y2="208"/><line class="cls-4" x1="502" y1="208" x2="586" y2="208"/><polygon class="cls-3" points="591 207.74 585 203.13 585 212.35 591 207.74"/><line class="cls-5" x1="546" y1="393" x2="546" y2="23"/><line class="cls-5" x1="264" y1="313" x2="264" y2="109"/><polygon class="cls-6" points="264 115 270.91 106 257.09 106 264 115"/><polygon class="cls-6" points="546 29 552.91 20 539.09 20 546 29"/></svg>