<?xml version="1.0" encoding="UTF-8"?>
<svg width="636px" height="309px" viewBox="0 0 636 309" version="1.1" xmlns="http://www.w3.org/2000/svg" xmlns:xlink="http://www.w3.org/1999/xlink">
    <title>Artboard</title>
    <g id="Artboard" stroke="none" stroke-width="1" fill="none" fill-rule="evenodd">
        <g id="title-id24" transform="translate(0.000000, -0.000000)" fill="#FFFF02" fill-rule="nonzero">
            <path d="M-2.84217094e-14,6.048 L12.672,6.048 L15.264,26.496 L16.848,41.184 L17.136,41.184 L19.728,26.496 L24.192,6.048 L34.56,6.048 L39.024,26.496 L41.184,38.664 L41.616,41.184 L41.904,41.184 L43.488,26.496 L46.08,6.048 L57.888,6.048 L50.112,52.848 L34.416,52.848 L30.816,34.272 C30.192,31.056 29.616,27.408 29.088,23.328 L28.8,23.328 L28.512,25.344 C27.888,29.616 27.408,32.592 27.072,34.272 L23.616,52.848 L8.208,52.848 L-2.84217094e-14,6.048 Z M69.984,51.444 C67.248,49.932 65.052,47.748 63.396,44.892 C61.74,42.036 60.912,38.688 60.912,34.848 C60.912,31.008 61.74,27.66 63.396,24.804 C65.052,21.948 67.248,19.764 69.984,18.252 C72.6683099,16.7533632 75.6937045,15.9722162 78.768,15.9838686 C81.888,15.9838686 84.816,16.74 87.552,18.252 C90.288,19.764 92.484,21.948 94.14,24.804 C95.796,27.66 96.624,31.008 96.624,34.848 C96.624,38.688 95.796,42.036 94.14,44.892 C92.484,47.748 90.288,49.932 87.552,51.444 C84.8676901,52.9426368 81.8422955,53.7237838 78.768,53.7121314 C75.648,53.7121314 72.72,52.956 69.984,51.444 L69.984,51.444 Z M83.952,34.848 C83.952,28.896 82.224,25.92 78.768,25.92 C75.312,25.92 73.584,28.896 73.584,34.848 C73.584,40.8 75.312,43.776 78.768,43.776 C82.224,43.776 83.952,40.8 83.952,34.848 Z M103.104,16.848 L113.184,16.848 L114.048,23.04 L114.336,23.04 C115.584,20.688 117.132,18.924 118.98,17.748 C120.828,16.572 122.688,15.984 124.56,15.984 C126.432,15.984 127.92,16.224 129.024,16.704 L127.008,27.36 C125.28,26.976 123.936,26.784 122.976,26.784 C121.536,26.784 120.132,27.276 118.764,28.26 C117.396,29.244 116.304,30.768 115.488,32.832 L115.488,52.848 L103.104,52.848 L103.104,16.848 Z M133.2,2.736 L145.296,2.736 L145.296,29.376 L145.584,29.376 L155.52,16.848 L168.912,16.848 L156.096,31.824 L169.632,52.848 L156.24,52.848 L149.04,40.032 L145.296,44.208 L145.296,52.848 L133.2,52.848 L133.2,2.736 Z M174.096,16.848 L186.48,16.848 L186.48,52.848 L174.096,52.848 L174.096,16.848 L174.096,16.848 Z M175.536,10.656 C174.288,9.504 173.664,8.016 173.664,6.192 C173.664,4.368 174.288,2.88 175.536,1.728 C176.784,0.576 178.368,0 180.288,0 C182.208,0 183.792,0.576 185.04,1.728 C186.288,2.88 186.912,4.368 186.912,6.192 C186.912,8.016 186.288,9.504 185.04,10.656 C183.792,11.808 182.208,12.384 180.288,12.384 C178.368,12.384 176.784,11.808 175.536,10.656 Z M194.832,16.848 L204.912,16.848 L205.776,21.168 L206.064,21.168 C207.744,19.584 209.496,18.324 211.32,17.388 C213.144,16.452 215.184,15.984 217.44,15.984 C221.28,15.984 224.112,17.268 225.936,19.836 C227.76,22.404 228.672,26.016 228.672,30.672 L228.672,52.848 L216.288,52.848 L216.288,32.256 C216.288,30.048 216.012,28.536 215.46,27.72 C214.908,26.904 213.984,26.496 212.688,26.496 C211.632,26.496 210.72,26.7 209.952,27.108 C209.184,27.516 208.272,28.224 207.216,29.232 L207.216,52.848 L194.832,52.848 L194.832,16.848 L194.832,16.848 Z M238.932,65.52 C236.124,64.08 234.72,61.824 234.72,58.752 C234.72,55.92 236.4,53.616 239.76,51.84 L239.76,51.552 C237.552,50.016 236.448,47.952 236.448,45.36 C236.448,44.16 236.808,42.948 237.528,41.724 C238.248,40.5 239.232,39.456 240.48,38.592 L240.48,38.304 C239.088,37.344 237.924,36.06 236.988,34.452 C236.052,32.844 235.584,31.056 235.584,29.088 C235.584,26.256 236.292,23.856 237.708,21.888 C239.124,19.92 241.008,18.444 243.36,17.46 C245.712,16.476 248.256,15.984 250.992,15.984 C253.104,15.984 255.024,16.272 256.752,16.848 L270.144,16.848 L270.144,25.776 L264.96,25.776 C265.344,26.928 265.536,28.176 265.536,29.52 C265.536,33.552 264.192,36.552 261.504,38.52 C258.816,40.488 255.312,41.472 250.992,41.472 C249.792,41.472 248.448,41.304 246.96,40.968 C246.624,41.304 246.396,41.604 246.276,41.868 C246.156,42.132 246.096,42.528 246.096,43.056 C246.096,43.824 246.48,44.376 247.248,44.712 C248.016,45.048 249.312,45.216 251.136,45.216 L256.536,45.216 C261.192,45.216 264.72,45.972 267.12,47.484 C269.52,48.996 270.72,51.36 270.72,54.576 C270.72,57.168 269.868,59.448 268.164,61.416 C266.46,63.384 264.036,64.92 260.892,66.024 C257.748,67.128 254.064,67.68 249.84,67.68 C245.376,67.68 241.74,66.96 238.932,65.52 L238.932,65.52 Z M253.836,32.868 C254.532,32.028 254.88,30.768 254.88,29.088 C254.88,27.504 254.532,26.292 253.836,25.452 C253.14,24.612 252.192,24.192 250.992,24.192 C249.792,24.192 248.844,24.612 248.148,25.452 C247.452,26.292 247.104,27.504 247.104,29.088 C247.104,30.768 247.452,32.028 248.148,32.868 C248.844,33.708 249.792,34.128 250.992,34.128 C252.192,34.128 253.14,33.708 253.836,32.868 Z M256.932,59.148 C258.252,58.548 258.912,57.744 258.912,56.736 C258.912,55.872 258.54,55.296 257.796,55.008 C257.052,54.72 255.816,54.576 254.088,54.576 L251.28,54.576 C248.832,54.576 247.104,54.432 246.096,54.144 C245.232,55.008 244.8,55.872 244.8,56.736 C244.8,57.84 245.436,58.668 246.708,59.22 C247.98,59.772 249.696,60.048 251.856,60.048 C253.92,60.048 255.612,59.748 256.932,59.148 Z M288,17.64 L295.344,17.64 L300.024,36.792 L301.464,43.992 L301.968,46.8 L302.256,46.8 C303.168,42.528 303.936,39.192 304.56,36.792 L309.528,17.64 L316.296,17.64 L321.336,36.792 L323.136,44.208 C323.232,44.784 323.424,45.648 323.712,46.8 L324,46.8 C324.528,44.256 324.864,42.576 325.008,41.76 L326.016,36.792 L330.624,17.64 L337.464,17.64 L328.32,52.848 L319.608,52.848 L315.072,35.352 C314.48801,32.9887893 313.959863,30.6121279 313.488,28.224 L312.84,25.128 L312.552,25.128 C311.64,29.784 310.896,33.216 310.32,35.424 L305.928,52.848 L297.504,52.848 L288,17.64 L288,17.64 Z M344.736,17.64 L352.008,17.64 L352.008,52.848 L344.736,52.848 L344.736,17.64 Z M345.204,9.792 C344.364,8.976 343.944,7.92 343.944,6.624 C343.944,5.376 344.364,4.344 345.204,3.528 C346.044,2.712 347.112,2.304 348.408,2.304 C349.704,2.304 350.772,2.712 351.612,3.528 C352.452,4.344 352.872,5.376 352.872,6.624 C352.872,7.92 352.452,8.976 351.612,9.792 C350.772,10.608 349.704,11.016 348.408,11.016 C347.112,11.016 346.044,10.608 345.204,9.792 Z M364.248,41.4 L364.248,23.472 L359.136,23.472 L359.136,18 L364.608,17.64 L365.472,7.92 L371.52,7.92 L371.52,17.64 L380.736,17.64 L380.736,23.472 L371.52,23.472 L371.52,41.4 C371.52,43.56 371.928,45.18 372.744,46.26 C373.56,47.34 374.88,47.88 376.704,47.88 C377.808,47.88 379.08,47.592 380.52,47.016 L381.816,52.416 C379.224,53.28 376.92,53.712 374.904,53.712 C367.8,53.712 364.248,49.608 364.248,41.4 L364.248,41.4 Z M388.368,1.8 L395.64,1.8 L395.64,15.336 L395.352,22.32 C397.176,20.592 398.988,19.236 400.788,18.252 C402.588,17.268 404.592,16.776 406.8,16.776 C414,16.776 417.6,21.408 417.6,30.672 L417.6,52.848 L410.328,52.848 L410.328,31.608 C410.328,28.584 409.86,26.4 408.924,25.056 C407.988,23.712 406.464,23.04 404.352,23.04 C402.768,23.04 401.352,23.412 400.104,24.156 C398.856,24.9 397.368,26.136 395.64,27.864 L395.64,52.848 L388.368,52.848 L388.368,1.8 Z" id="Shape"></path>
            <path d="M4.464,82.048 L16.848,82.048 L16.848,99.472 L30.816,99.472 L30.816,82.048 L43.2,82.048 L43.2,128.848 L30.816,128.848 L30.816,110.272 L16.848,110.272 L16.848,128.848 L4.464,128.848 L4.464,82.048 Z M52.56,92.848 L64.944,92.848 L64.944,128.848 L52.56,128.848 L52.56,92.848 Z M54,86.656 C52.752,85.504 52.128,84.016 52.128,82.192 C52.128,80.368 52.752,78.88 54,77.728 C55.248,76.576 56.832,76 58.752,76 C60.672,76 62.256,76.576 63.504,77.728 C64.752,78.88 65.376,80.368 65.376,82.192 C65.376,84.016 64.752,85.504 63.504,86.656 C62.256,87.808 60.672,88.384 58.752,88.384 C56.832,88.384 55.248,87.808 54,86.656 Z M75.492,141.52 C72.684,140.08 71.28,137.824 71.28,134.752 C71.28,131.92 72.96,129.616 76.32,127.84 L76.32,127.552 C74.112,126.016 73.008,123.952 73.008,121.36 C73.008,120.16 73.368,118.948 74.088,117.724 C74.808,116.5 75.792,115.456 77.04,114.592 L77.04,114.304 C75.648,113.344 74.484,112.06 73.548,110.452 C72.612,108.844 72.144,107.056 72.144,105.088 C72.144,102.256 72.852,99.856 74.268,97.888 C75.684,95.92 77.568,94.444 79.92,93.46 C82.272,92.476 84.816,91.984 87.552,91.984 C89.664,91.984 91.584,92.272 93.312,92.848 L106.704,92.848 L106.704,101.776 L101.52,101.776 C101.904,102.928 102.096,104.176 102.096,105.52 C102.096,109.552 100.752,112.552 98.064,114.52 C95.376,116.488 91.872,117.472 87.552,117.472 C86.352,117.472 85.008,117.304 83.52,116.968 C83.184,117.304 82.956,117.604 82.836,117.868 C82.716,118.132 82.656,118.528 82.656,119.056 C82.656,119.824 83.04,120.376 83.808,120.712 C84.576,121.048 85.872,121.216 87.696,121.216 L93.096,121.216 C97.752,121.216 101.28,121.972 103.68,123.484 C106.08,124.996 107.28,127.36 107.28,130.576 C107.28,133.168 106.428,135.448 104.724,137.416 C103.02,139.384 100.596,140.92 97.452,142.024 C94.308,143.128 90.624,143.68 86.4,143.68 C81.936,143.68 78.3,142.96 75.492,141.52 L75.492,141.52 Z M90.396,108.868 C91.092,108.028 91.44,106.768 91.44,105.088 C91.44,103.504 91.092,102.292 90.396,101.452 C89.7,100.612 88.752,100.192 87.552,100.192 C86.352,100.192 85.404,100.612 84.708,101.452 C84.012,102.292 83.664,103.504 83.664,105.088 C83.664,106.768 84.012,108.028 84.708,108.868 C85.404,109.708 86.352,110.128 87.552,110.128 C88.752,110.128 89.7,109.708 90.396,108.868 Z M93.492,135.148 C94.812,134.548 95.472,133.744 95.472,132.736 C95.472,131.872 95.1,131.296 94.356,131.008 C93.612,130.72 92.376,130.576 90.648,130.576 L87.84,130.576 C85.392,130.576 83.664,130.432 82.656,130.144 C81.792,131.008 81.36,131.872 81.36,132.736 C81.36,133.84 81.996,134.668 83.268,135.22 C84.54,135.772 86.256,136.048 88.416,136.048 C90.48,136.048 92.172,135.748 93.492,135.148 L93.492,135.148 Z M112.608,78.736 L124.992,78.736 L124.992,90.4 L124.416,96.592 C125.899744,95.2832908 127.545158,94.1702165 129.312,93.28 C131.04,92.416 133.008,91.984 135.216,91.984 C139.056,91.984 141.888,93.268 143.712,95.836 C145.536,98.404 146.448,102.016 146.448,106.672 L146.448,128.848 L134.064,128.848 L134.064,108.256 C134.064,106.048 133.788,104.536 133.236,103.72 C132.684,102.904 131.76,102.496 130.464,102.496 C129.408,102.496 128.496,102.7 127.728,103.108 C126.96,103.516 126.048,104.224 124.992,105.232 L124.992,128.848 L112.608,128.848 L112.608,78.736 Z M179.028,127.012 C175.644,125.212 172.944,122.512 170.928,118.912 C168.912,115.312 167.904,110.944 167.904,105.808 C167.904,100.768 168.948,96.388 171.036,92.668 C173.124,88.948 175.884,86.104 179.316,84.136 C182.748,82.168 186.48,81.184 190.512,81.184 C193.392,81.184 196.08,81.76 198.576,82.912 C201.072,84.064 203.232,85.552 205.056,87.376 L198.576,95.296 C197.28,94.144 196.032,93.28 194.832,92.704 C193.632,92.128 192.288,91.84 190.8,91.84 C188.976,91.84 187.284,92.392 185.724,93.496 C184.164,94.6 182.916,96.172 181.98,98.212 C181.044,100.252 180.576,102.64 180.576,105.376 C180.576,109.696 181.488,113.056 183.312,115.456 C185.136,117.856 187.584,119.056 190.656,119.056 C193.824,119.056 196.656,117.712 199.152,115.024 L205.632,122.8 C203.664,125.104 201.372,126.832 198.756,127.984 C196.14,129.136 193.296,129.712 190.224,129.712 C186.144,129.712 182.412,128.812 179.028,127.012 L179.028,127.012 Z M218.304,127.444 C215.568,125.932 213.372,123.748 211.716,120.892 C210.06,118.036 209.232,114.688 209.232,110.848 C209.232,107.008 210.06,103.66 211.716,100.804 C213.372,97.948 215.568,95.764 218.304,94.252 C220.98831,92.7533632 224.013704,91.9722162 227.088,91.9838686 C230.208,91.9838686 233.136,92.74 235.872,94.252 C238.608,95.764 240.804,97.948 242.46,100.804 C244.116,103.66 244.944,107.008 244.944,110.848 C244.944,114.688 244.116,118.036 242.46,120.892 C240.804,123.748 238.608,125.932 235.872,127.444 C233.18769,128.942637 230.162296,129.723784 227.088,129.712131 C223.968,129.712131 221.04,128.956 218.304,127.444 L218.304,127.444 Z M232.272,110.848 C232.272,104.896 230.544,101.92 227.088,101.92 C223.632,101.92 221.904,104.896 221.904,110.848 C221.904,116.8 223.632,119.776 227.088,119.776 C230.544,119.776 232.272,116.8 232.272,110.848 Z M251.424,92.848 L261.504,92.848 L262.368,97.168 L262.656,97.168 C264.336,95.584 266.088,94.324 267.912,93.388 C269.736,92.452 271.776,91.984 274.032,91.984 C277.872,91.984 280.704,93.268 282.528,95.836 C284.352,98.404 285.264,102.016 285.264,106.672 L285.264,128.848 L272.88,128.848 L272.88,108.256 C272.88,106.048 272.604,104.536 272.052,103.72 C271.5,102.904 270.576,102.496 269.28,102.496 C268.224,102.496 267.312,102.7 266.544,103.108 C265.776,103.516 264.864,104.224 263.808,105.232 L263.808,128.848 L251.424,128.848 L251.424,92.848 L251.424,92.848 Z M298.152,125.824 C295.992,123.232 294.912,119.632 294.912,115.024 L294.912,102.496 L290.16,102.496 L290.16,93.28 L295.632,92.848 L297.072,83.488 L307.296,83.488 L307.296,92.848 L315.504,92.848 L315.504,102.496 L307.296,102.496 L307.296,114.808 C307.296,116.68 307.692,118.024 308.484,118.84 C309.276,119.656 310.32,120.064 311.616,120.064 C312.576,120.064 313.632,119.872 314.784,119.488 L316.656,128.416 C313.905763,129.274851 311.04122,129.712 308.16,129.712 C303.648,129.712 300.312,128.416 298.152,125.824 Z M322.128,92.848 L332.208,92.848 L333.072,99.04 L333.36,99.04 C334.608,96.688 336.156,94.924 338.004,93.748 C339.852,92.572 341.712,91.984 343.584,91.984 C345.456,91.984 346.944,92.224 348.048,92.704 L346.032,103.36 C344.304,102.976 342.96,102.784 342,102.784 C340.56,102.784 339.156,103.276 337.788,104.26 C336.42,105.244 335.328,106.768 334.512,108.832 L334.512,128.848 L322.128,128.848 L322.128,92.848 L322.128,92.848 Z M355.86,128.2 C354.204,127.192 352.944,125.848 352.08,124.168 C351.216,122.488 350.784,120.64 350.784,118.624 C350.784,114.832 352.332,111.88 355.428,109.768 C358.524,107.656 363.504,106.24 370.368,105.52 C370.224,104.224 369.744,103.276 368.928,102.676 C368.112,102.076 366.912,101.776 365.328,101.776 C364.08,101.776 362.736,102.016 361.296,102.496 C359.856,102.976 358.176,103.744 356.256,104.8 L351.936,96.736 C357.216,93.568 362.496,91.984 367.776,91.984 C377.76,91.984 382.752,97.6 382.752,108.832 L382.752,128.848 L372.672,128.848 L371.808,125.392 L371.52,125.392 C368.304,128.272 364.992,129.712 361.584,129.712 C359.424,129.712 357.516,129.208 355.86,128.2 L355.86,128.2 Z M368.244,119.596 C368.892,119.188 369.6,118.576 370.368,117.76 L370.368,112.864 C365.184,113.632 362.592,115.216 362.592,117.616 C362.592,118.432 362.88,119.068 363.456,119.524 C364.032,119.98 364.848,120.208 365.904,120.208 C366.816,120.208 367.596,120.004 368.244,119.596 L368.244,119.596 Z M394.596,128.308 C392.028,127.372 389.808,126.16 387.936,124.672 L393.408,117.04 C396.672,119.44 399.6,120.64 402.192,120.64 C403.488,120.64 404.412,120.46 404.964,120.1 C405.516,119.74 405.792,119.2 405.792,118.48 C405.792,117.76 405.408,117.184 404.64,116.752 C403.872,116.32 402.552,115.744 400.68,115.024 C400.44,114.928 400.176,114.82 399.888,114.7 C399.554371,114.562043 399.218318,114.430022 398.88,114.304 C392.832,111.904 389.808,108.352 389.808,103.648 C389.808,100.144 391.116,97.324 393.732,95.188 C396.348,93.052 399.792,91.984 404.064,91.984 C406.752,91.984 409.152,92.416 411.264,93.28 C413.419429,94.168763 415.452002,95.3302334 417.312,96.736 L411.84,104.08 C409.056,102.064 406.608,101.056 404.496,101.056 C402.384,101.056 401.328,101.728 401.328,103.072 C401.328,103.792 401.712,104.356 402.48,104.764 C403.248,105.172 404.544,105.712 406.368,106.384 C406.752,106.48 407.328,106.672 408.096,106.96 C410.784,107.968 412.992,109.288 414.72,110.92 C416.448,112.552 417.312,114.832 417.312,117.76 C417.312,121.264 415.968,124.132 413.28,126.364 C410.592,128.596 406.8,129.712 401.904,129.712 C399.6,129.712 397.164,129.244 394.596,128.308 L394.596,128.308 Z M428.184,125.824 C426.024,123.232 424.944,119.632 424.944,115.024 L424.944,102.496 L420.192,102.496 L420.192,93.28 L425.664,92.848 L427.104,83.488 L437.328,83.488 L437.328,92.848 L445.536,92.848 L445.536,102.496 L437.328,102.496 L437.328,114.808 C437.328,116.68 437.724,118.024 438.516,118.84 C439.308,119.656 440.352,120.064 441.648,120.064 C442.608,120.064 443.664,119.872 444.816,119.488 L446.688,128.416 C443.937763,129.274851 441.07322,129.712 438.192,129.712 C433.68,129.712 430.344,128.416 428.184,125.824 L428.184,125.824 Z M467.568,82.048 L480.816,82.048 L487.872,101.2 C488.208,102.16 488.664,103.648 489.24,105.664 L490.32,109.408 L490.608,109.408 L491.688,105.664 C492.264,103.648 492.72,102.16 493.056,101.2 L499.824,82.048 L513.072,82.048 L513.072,128.848 L501.84,128.848 L501.84,115.024 C501.84,113.248 501.984,110.956 502.272,108.148 C502.56,105.34 502.872,102.736 503.208,100.336 L503.424,98.32 L503.136,98.32 L499.248,109.552 L493.488,125.032 L486.864,125.032 L481.104,109.552 L477.36,98.32 L477.072,98.32 L477.288,100.336 C477.624,102.736 477.936,105.34 478.224,108.148 C478.512,110.956 478.656,113.248 478.656,115.024 L478.656,128.848 L467.568,128.848 L467.568,82.048 L467.568,82.048 Z M529.632,127.444 C526.896,125.932 524.7,123.748 523.044,120.892 C521.388,118.036 520.56,114.688 520.56,110.848 C520.56,107.008 521.388,103.66 523.044,100.804 C524.7,97.948 526.896,95.764 529.632,94.252 C532.31631,92.7533632 535.341704,91.9722162 538.416,91.9838686 C541.536,91.9838686 544.464,92.74 547.2,94.252 C549.936,95.764 552.132,97.948 553.788,100.804 C555.444,103.66 556.272,107.008 556.272,110.848 C556.272,114.688 555.444,118.036 553.788,120.892 C552.132,123.748 549.936,125.932 547.2,127.444 C544.51569,128.942637 541.490296,129.723784 538.416,129.712131 C535.296,129.712131 532.368,128.956 529.632,127.444 Z M543.6,110.848 C543.6,104.896 541.872,101.92 538.416,101.92 C534.96,101.92 533.232,104.896 533.232,110.848 C533.232,116.8 534.96,119.776 538.416,119.776 C541.872,119.776 543.6,116.8 543.6,110.848 Z M568.08,127.408 C565.872,125.872 564.168,123.688 562.968,120.856 C561.768,118.024 561.168,114.688 561.168,110.848 C561.168,107.056 561.864,103.732 563.256,100.876 C564.648,98.02 566.472,95.824 568.728,94.288 C570.984,92.752 573.36,91.984 575.856,91.984 C577.68,91.984 579.228,92.284 580.5,92.884 C581.772,93.484 583.008,94.384 584.208,95.584 L583.776,90.4 L583.776,78.736 L596.16,78.736 L596.16,128.848 L586.08,128.848 L585.216,125.536 L584.928,125.536 C583.674866,126.787616 582.21294,127.810964 580.608,128.56 C578.976,129.328 577.392,129.712 575.856,129.712 C572.88,129.712 570.288,128.944 568.08,127.408 Z M581.76,119.056 C582.48,118.672 583.152,118 583.776,117.04 L583.776,103.792 C582.48,102.64 580.848,102.064 578.88,102.064 C577.44,102.064 576.24,102.76 575.28,104.152 C574.32,105.544 573.84,107.728 573.84,110.704 C573.84,113.824 574.296,116.092 575.208,117.508 C576.12,118.924 577.44,119.632 579.168,119.632 C580.176,119.632 581.04,119.44 581.76,119.056 Z M635.112,114.592 L614.376,114.592 C614.952,116.704 616.02,118.192 617.58,119.056 C619.14,119.92 620.928,120.352 622.944,120.352 C625.248,120.352 627.696,119.632 630.288,118.192 L634.32,125.536 C632.448,126.88 630.324,127.912 627.948,128.632 C625.572,129.352 623.328,129.712 621.216,129.712 C617.664,129.712 614.484,128.968 611.676,127.48 C608.868,125.992 606.66,123.82 605.052,120.964 C603.444,118.108 602.64,114.736 602.64,110.848 C602.64,107.104 603.456,103.804 605.088,100.948 C606.72,98.092 608.856,95.884 611.496,94.324 C614.136,92.764 616.944,91.984 619.92,91.984 C625.008,91.984 628.896,93.616 631.584,96.88 C634.272,100.144 635.616,104.32 635.616,109.408 C635.616,111.52 635.448,113.248 635.112,114.592 L635.112,114.592 Z M625.104,106.528 C625.104,104.992 624.72,103.744 623.952,102.784 C623.184,101.824 621.936,101.344 620.208,101.344 C618.864,101.344 617.676,101.764 616.644,102.604 C615.612,103.444 614.856,104.752 614.376,106.528 L625.104,106.528 L625.104,106.528 Z" id="Shape"></path>
        </g>
        <g id="TechAccess-Oklahoma" transform="translate(1.107000, 162.931000)" fill="#736FE6" fill-rule="nonzero">
            <polygon id="Path" points="7.913 5.74 0 5.74 0 2.214 20.008 2.214 20.008 5.74 12.095 5.74 12.095 29.069 7.913 29.069"></polygon>
            <path d="M37.351,17.999 C37.351,18.7643333 37.2963333,19.475 37.187,20.131 L23.944,20.131 C24.1353333,22.1536667 24.8255,23.6911667 26.0145,24.7435 C27.2035,25.7958333 28.6453333,26.322 30.34,26.322 C31.9526667,26.322 33.5516667,25.8163333 35.137,24.805 L36.572,27.429 C34.44,28.8503333 32.185,29.561 29.807,29.561 C27.9756667,29.561 26.322,29.1373333 24.846,28.29 C23.37,27.4426667 22.2015,26.2263333 21.3405,24.641 C20.4795,23.0556667 20.049,21.197 20.049,19.065 C20.049,16.9603333 20.4795,15.1085 21.3405,13.5095 C22.2015,11.9105 23.329,10.6805 24.723,9.8195 C26.117,8.9585 27.6066667,8.528 29.192,8.528 C31.7886667,8.528 33.7976667,9.38216667 35.219,11.0905 C36.6403333,12.7988333 37.351,15.1016667 37.351,17.999 Z M33.743,17.261 C33.743,15.5116667 33.3603333,14.1586667 32.595,13.202 C31.8296667,12.2453333 30.7226667,11.767 29.274,11.767 C28.0166667,11.767 26.896,12.2316667 25.912,13.161 C24.928,14.0903333 24.2993333,15.457 24.026,17.261 L33.743,17.261 Z" id="Shape"></path>
            <path d="M50.184,29.561 C48.38,29.561 46.7536667,29.1441667 45.305,28.3105 C43.8563333,27.4768333 42.7151667,26.2673333 41.8815,24.682 C41.0478333,23.0966667 40.631,21.2243333 40.631,19.065 C40.631,16.9056667 41.082,15.0333333 41.984,13.448 C42.886,11.8626667 44.0886667,10.6463333 45.592,9.799 C47.0953333,8.95166667 48.7353333,8.528 50.512,8.528 C52.6986667,8.528 54.653,9.29333333 56.375,10.824 L54.325,13.53 C53.7236667,13.0106667 53.136,12.6143333 52.562,12.341 C51.988,12.0676667 51.373,11.931 50.717,11.931 C48.995,11.931 47.5941667,12.587 46.5145,13.899 C45.4348333,15.211 44.895,16.933 44.895,19.065 C44.895,21.197 45.4211667,22.9121667 46.4735,24.2105 C47.5258333,25.5088333 48.8993333,26.158 50.594,26.158 C52.0973333,26.158 53.5596667,25.543 54.981,24.313 L56.703,27.06 C55.801,27.88 54.7828333,28.5018333 53.6485,28.9255 C52.5141667,29.3491667 51.3593333,29.561 50.184,29.561 Z" id="Path"></path>
            <path d="M60.844,0 L64.985,0 L64.985,7.708 L64.821,11.685 C65.8596667,10.701 66.8915,9.92883333 67.9165,9.3685 C68.9415,8.80816667 70.0826667,8.528 71.34,8.528 C75.44,8.528 77.49,11.1656667 77.49,16.441 L77.49,29.069 L73.349,29.069 L73.349,16.974 C73.349,15.252 73.0825,14.0083333 72.5495,13.243 C72.0165,12.4776667 71.1486667,12.095 69.946,12.095 C69.044,12.095 68.2376667,12.3068333 67.527,12.7305 C66.8163333,13.1541667 65.969,13.858 64.985,14.842 L64.985,29.069 L60.844,29.069 L60.844,0 Z" id="Path"></path>
            <path d="M96.227,21.402 L86.879,21.402 L84.583,29.069 L80.319,29.069 L89.216,2.214 L94.054,2.214 L102.951,29.069 L98.523,29.069 L96.227,21.402 Z M95.243,18.081 L94.177,14.473 C93.7943333,13.1883333 93.3638333,11.6986667 92.8855,10.004 C92.4071667,8.30933333 92.0586667,7.07933333 91.84,6.314 C91.8126667,6.09533333 91.7443333,5.83566667 91.635,5.535 L91.471,5.535 C90.5963333,8.897 89.7626667,11.8763333 88.97,14.473 L87.904,18.081 L95.243,18.081 Z" id="Shape"></path>
            <path d="M114.267,29.561 C112.463,29.561 110.836667,29.1441667 109.388,28.3105 C107.939333,27.4768333 106.798167,26.2673333 105.9645,24.682 C105.130833,23.0966667 104.714,21.2243333 104.714,19.065 C104.714,16.9056667 105.165,15.0333333 106.067,13.448 C106.969,11.8626667 108.171667,10.6463333 109.675,9.799 C111.178333,8.95166667 112.818333,8.528 114.595,8.528 C116.781667,8.528 118.736,9.29333333 120.458,10.824 L118.408,13.53 C117.806667,13.0106667 117.219,12.6143333 116.645,12.341 C116.071,12.0676667 115.456,11.931 114.8,11.931 C113.078,11.931 111.677167,12.587 110.5975,13.899 C109.517833,15.211 108.978,16.933 108.978,19.065 C108.978,21.197 109.504167,22.9121667 110.5565,24.2105 C111.608833,25.5088333 112.982333,26.158 114.677,26.158 C116.180333,26.158 117.642667,25.543 119.064,24.313 L120.786,27.06 C119.884,27.88 118.865833,28.5018333 117.7315,28.9255 C116.597167,29.3491667 115.442333,29.561 114.267,29.561 Z" id="Path"></path>
            <path d="M132.143,29.561 C130.339,29.561 128.712667,29.1441667 127.264,28.3105 C125.815333,27.4768333 124.674167,26.2673333 123.8405,24.682 C123.006833,23.0966667 122.59,21.2243333 122.59,19.065 C122.59,16.9056667 123.041,15.0333333 123.943,13.448 C124.845,11.8626667 126.047667,10.6463333 127.551,9.799 C129.054333,8.95166667 130.694333,8.528 132.471,8.528 C134.657667,8.528 136.612,9.29333333 138.334,10.824 L136.284,13.53 C135.682667,13.0106667 135.095,12.6143333 134.521,12.341 C133.947,12.0676667 133.332,11.931 132.676,11.931 C130.954,11.931 129.553167,12.587 128.4735,13.899 C127.393833,15.211 126.854,16.933 126.854,19.065 C126.854,21.197 127.380167,22.9121667 128.4325,24.2105 C129.484833,25.5088333 130.858333,26.158 132.553,26.158 C134.056333,26.158 135.518667,25.543 136.94,24.313 L138.662,27.06 C137.76,27.88 136.741833,28.5018333 135.6075,28.9255 C134.473167,29.3491667 133.318333,29.561 132.143,29.561 Z" id="Path"></path>
            <path d="M157.768,17.999 C157.768,18.7643333 157.713333,19.475 157.604,20.131 L144.361,20.131 C144.552333,22.1536667 145.2425,23.6911667 146.4315,24.7435 C147.6205,25.7958333 149.062333,26.322 150.757,26.322 C152.369667,26.322 153.968667,25.8163333 155.554,24.805 L156.989,27.429 C154.857,28.8503333 152.602,29.561 150.224,29.561 C148.392667,29.561 146.739,29.1373333 145.263,28.29 C143.787,27.4426667 142.6185,26.2263333 141.7575,24.641 C140.8965,23.0556667 140.466,21.197 140.466,19.065 C140.466,16.9603333 140.8965,15.1085 141.7575,13.5095 C142.6185,11.9105 143.746,10.6805 145.14,9.8195 C146.534,8.9585 148.023667,8.528 149.609,8.528 C152.205667,8.528 154.214667,9.38216667 155.636,11.0905 C157.057333,12.7988333 157.768,15.1016667 157.768,17.999 Z M154.16,17.261 C154.16,15.5116667 153.777333,14.1586667 153.012,13.202 C152.246667,12.2453333 151.139667,11.767 149.691,11.767 C148.433667,11.767 147.313,12.2316667 146.329,13.161 C145.345,14.0903333 144.716333,15.457 144.443,17.261 L154.16,17.261 Z" id="Shape"></path>
            <path d="M167.895,29.561 C166.555667,29.561 165.216333,29.3013333 163.877,28.782 C162.537667,28.2626667 161.362333,27.593 160.351,26.773 L162.319,24.108 C163.275667,24.846 164.205,25.4131667 165.107,25.8095 C166.009,26.2058333 166.979333,26.404 168.018,26.404 C169.166,26.404 170.040667,26.1511667 170.642,25.6455 C171.243333,25.1398333 171.544,24.4906667 171.544,23.698 C171.544,22.878 171.175,22.2288333 170.437,21.7505 C169.699,21.2721667 168.592,20.7596667 167.116,20.213 C165.339333,19.557 163.931667,18.7985 162.893,17.9375 C161.854333,17.0765 161.335,15.8943333 161.335,14.391 C161.335,12.669 161.977333,11.2613333 163.262,10.168 C164.546667,9.07466667 166.282333,8.528 168.469,8.528 C170.819667,8.528 172.979,9.307 174.947,10.865 L173.02,13.448 C172.254667,12.874 171.516667,12.4366667 170.806,12.136 C170.095333,11.8353333 169.343667,11.685 168.551,11.685 C167.485,11.685 166.671833,11.9173333 166.1115,12.382 C165.551167,12.8466667 165.271,13.448 165.271,14.186 C165.271,14.7326667 165.462333,15.1905 165.845,15.5595 C166.227667,15.9285 166.671833,16.2223333 167.1775,16.441 C167.683167,16.6596667 168.482667,16.974 169.576,17.384 C170.778667,17.8213333 171.783167,18.2655 172.5895,18.7165 C173.395833,19.1675 174.079167,19.7756667 174.6395,20.541 C175.199833,21.3063333 175.48,22.2766667 175.48,23.452 C175.48,24.6 175.186167,25.6318333 174.5985,26.5475 C174.010833,27.4631667 173.143,28.1943333 171.995,28.741 C170.847,29.2876667 169.480333,29.561 167.895,29.561 Z" id="Path"></path>
            <path d="M185.361,29.561 C184.021667,29.561 182.682333,29.3013333 181.343,28.782 C180.003667,28.2626667 178.828333,27.593 177.817,26.773 L179.785,24.108 C180.741667,24.846 181.671,25.4131667 182.573,25.8095 C183.475,26.2058333 184.445333,26.404 185.484,26.404 C186.632,26.404 187.506667,26.1511667 188.108,25.6455 C188.709333,25.1398333 189.01,24.4906667 189.01,23.698 C189.01,22.878 188.641,22.2288333 187.903,21.7505 C187.165,21.2721667 186.058,20.7596667 184.582,20.213 C182.805333,19.557 181.397667,18.7985 180.359,17.9375 C179.320333,17.0765 178.801,15.8943333 178.801,14.391 C178.801,12.669 179.443333,11.2613333 180.728,10.168 C182.012667,9.07466667 183.748333,8.528 185.935,8.528 C188.285667,8.528 190.445,9.307 192.413,10.865 L190.486,13.448 C189.720667,12.874 188.982667,12.4366667 188.272,12.136 C187.561333,11.8353333 186.809667,11.685 186.017,11.685 C184.951,11.685 184.137833,11.9173333 183.5775,12.382 C183.017167,12.8466667 182.737,13.448 182.737,14.186 C182.737,14.7326667 182.928333,15.1905 183.311,15.5595 C183.693667,15.9285 184.137833,16.2223333 184.6435,16.441 C185.149167,16.6596667 185.948667,16.974 187.042,17.384 C188.244667,17.8213333 189.249167,18.2655 190.0555,18.7165 C190.861833,19.1675 191.545167,19.7756667 192.1055,20.541 C192.665833,21.3063333 192.946,22.2766667 192.946,23.452 C192.946,24.6 192.652167,25.6318333 192.0645,26.5475 C191.476833,27.4631667 190.609,28.1943333 189.461,28.741 C188.313,29.2876667 186.946333,29.561 185.361,29.561 Z" id="Path"></path>
            <path d="M216.152,29.561 C213.856,29.561 211.8265,28.9938333 210.0635,27.8595 C208.3005,26.7251667 206.927,25.0988333 205.943,22.9805 C204.959,20.8621667 204.467,18.3816667 204.467,15.539 C204.467,12.6963333 204.959,10.2363333 205.943,8.159 C206.927,6.08166667 208.3005,4.4895 210.0635,3.3825 C211.8265,2.2755 213.856,1.722 216.152,1.722 C218.448,1.722 220.4775,2.2755 222.2405,3.3825 C224.0035,4.4895 225.377,6.08166667 226.361,8.159 C227.345,10.2363333 227.837,12.6963333 227.837,15.539 C227.837,18.3816667 227.345,20.8621667 226.361,22.9805 C225.377,25.0988333 224.0035,26.7251667 222.2405,27.8595 C220.4775,28.9938333 218.448,29.561 216.152,29.561 Z M216.152,25.912 C217.628,25.912 218.926333,25.4883333 220.047,24.641 C221.167667,23.7936667 222.028667,22.5841667 222.63,21.0125 C223.231333,19.4408333 223.532,17.6163333 223.532,15.539 C223.532,12.3956667 222.862333,9.91516667 221.523,8.0975 C220.183667,6.27983333 218.393333,5.371 216.152,5.371 C213.910667,5.371 212.120333,6.27983333 210.781,8.0975 C209.441667,9.91516667 208.772,12.3956667 208.772,15.539 C208.772,17.6163333 209.072667,19.4408333 209.674,21.0125 C210.275333,22.5841667 211.136333,23.7936667 212.257,24.641 C213.377667,25.4883333 214.676,25.912 216.152,25.912 Z" id="Shape"></path>
            <polygon id="Path" points="233.044 0 237.103 0 237.103 18.819 237.226 18.819 245.139 9.02 249.69 9.02 242.884 17.138 250.469 29.069 245.959 29.069 240.506 19.967 237.103 23.903 237.103 29.069 233.044 29.069"></polygon>
            <path d="M258.095,29.561 C256.646333,29.561 255.594,29.1236667 254.938,28.249 C254.282,27.3743333 253.954,26.0896667 253.954,24.395 L253.954,0 L258.095,0 L258.095,24.641 C258.095,25.1603333 258.190667,25.543 258.382,25.789 C258.573333,26.035 258.805667,26.158 259.079,26.158 C259.325,26.158 259.571,26.1306667 259.817,26.076 L260.35,29.192 C259.721333,29.438 258.969667,29.561 258.095,29.561 Z" id="Path"></path>
            <path d="M269.534,29.561 C267.784667,29.561 266.363333,29.0348333 265.27,27.9825 C264.176667,26.9301667 263.63,25.5156667 263.63,23.739 C263.63,21.5796667 264.586667,19.9191667 266.5,18.7575 C268.413333,17.5958333 271.461,16.7826667 275.643,16.318 C275.588333,13.366 274.303667,11.89 271.789,11.89 C270.094333,11.89 268.167333,12.5733333 266.008,13.94 L264.45,11.152 C267.183333,9.40266667 269.875667,8.528 272.527,8.528 C274.959667,8.528 276.777333,9.25916667 277.98,10.7215 C279.182667,12.1838333 279.784,14.2816667 279.784,17.015 L279.784,29.069 L276.381,29.069 L276.053,26.773 L275.93,26.773 C273.716,28.6316667 271.584,29.561 269.534,29.561 Z M270.805,26.281 C271.652333,26.281 272.445,26.0896667 273.183,25.707 C273.921,25.3243333 274.741,24.723 275.643,23.903 L275.643,18.942 C272.745667,19.2973333 270.688833,19.844 269.4725,20.582 C268.256167,21.32 267.648,22.2766667 267.648,23.452 C267.648,24.3813333 267.935,25.0851667 268.509,25.5635 C269.083,26.0418333 269.848333,26.281 270.805,26.281 Z" id="Shape"></path>
            <path d="M285.729,0 L289.87,0 L289.87,7.708 L289.706,11.685 C290.744667,10.701 291.7765,9.92883333 292.8015,9.3685 C293.8265,8.80816667 294.967667,8.528 296.225,8.528 C300.325,8.528 302.375,11.1656667 302.375,16.441 L302.375,29.069 L298.234,29.069 L298.234,16.974 C298.234,15.252 297.9675,14.0083333 297.4345,13.243 C296.9015,12.4776667 296.033667,12.095 294.831,12.095 C293.929,12.095 293.122667,12.3068333 292.412,12.7305 C291.701333,13.1541667 290.854,13.858 289.87,14.842 L289.87,29.069 L285.729,29.069 L285.729,0 Z" id="Path"></path>
            <path d="M316.397,29.561 C314.729667,29.561 313.171667,29.1373333 311.723,28.29 C310.274333,27.4426667 309.1195,26.2263333 308.2585,24.641 C307.3975,23.0556667 306.967,21.197 306.967,19.065 C306.967,16.9056667 307.3975,15.0333333 308.2585,13.448 C309.1195,11.8626667 310.2675,10.6463333 311.7025,9.799 C313.1375,8.95166667 314.702333,8.528 316.397,8.528 C318.091667,8.528 319.6565,8.95166667 321.0915,9.799 C322.5265,10.6463333 323.6745,11.8626667 324.5355,13.448 C325.3965,15.0333333 325.827,16.9056667 325.827,19.065 C325.827,21.197 325.3965,23.0556667 324.5355,24.641 C323.6745,26.2263333 322.519667,27.4426667 321.071,28.29 C319.622333,29.1373333 318.064333,29.561 316.397,29.561 Z M316.397,26.158 C317.982333,26.158 319.239667,25.5088333 320.169,24.2105 C321.098333,22.9121667 321.563,21.197 321.563,19.065 C321.563,16.933 321.0915,15.211 320.1485,13.899 C319.2055,12.587 317.955,11.931 316.397,11.931 C314.839,11.931 313.5885,12.587 312.6455,13.899 C311.7025,15.211 311.231,16.933 311.231,19.065 C311.231,21.197 311.695667,22.9121667 312.625,24.2105 C313.554333,25.5088333 314.811667,26.158 316.397,26.158 Z" id="Shape"></path>
            <path d="M330.747,9.02 L334.15,9.02 L334.478,11.808 L334.601,11.808 C335.585,10.7966667 336.575833,9.99716667 337.5735,9.4095 C338.571167,8.82183333 339.644,8.528 340.792,8.528 C343.552667,8.528 345.397667,9.758 346.327,12.218 C347.447667,11.0153333 348.5205,10.0996667 349.5455,9.471 C350.5705,8.84233333 351.670667,8.528 352.846,8.528 C354.896,8.528 356.4335,9.2045 357.4585,10.5575 C358.4835,11.9105 358.996,13.8716667 358.996,16.441 L358.996,29.069 L354.855,29.069 L354.855,16.974 C354.855,15.252 354.5885,14.0083333 354.0555,13.243 C353.5225,12.4776667 352.668333,12.095 351.493,12.095 C350.126333,12.095 348.609333,13.0106667 346.942,14.842 L346.942,29.069 L342.801,29.069 L342.801,16.974 C342.801,15.252 342.5345,14.0083333 342.0015,13.243 C341.4685,12.4776667 340.614333,12.095 339.439,12.095 C338.072333,12.095 336.555333,13.0106667 334.888,14.842 L334.888,29.069 L330.747,29.069 L330.747,9.02 Z" id="Path"></path>
            <path d="M369.82,29.561 C368.070667,29.561 366.649333,29.0348333 365.556,27.9825 C364.462667,26.9301667 363.916,25.5156667 363.916,23.739 C363.916,21.5796667 364.872667,19.9191667 366.786,18.7575 C368.699333,17.5958333 371.747,16.7826667 375.929,16.318 C375.874333,13.366 374.589667,11.89 372.075,11.89 C370.380333,11.89 368.453333,12.5733333 366.294,13.94 L364.736,11.152 C367.469333,9.40266667 370.161667,8.528 372.813,8.528 C375.245667,8.528 377.063333,9.25916667 378.266,10.7215 C379.468667,12.1838333 380.07,14.2816667 380.07,17.015 L380.07,29.069 L376.667,29.069 L376.339,26.773 L376.216,26.773 C374.002,28.6316667 371.87,29.561 369.82,29.561 Z M371.091,26.281 C371.938333,26.281 372.731,26.0896667 373.469,25.707 C374.207,25.3243333 375.027,24.723 375.929,23.903 L375.929,18.942 C373.031667,19.2973333 370.974833,19.844 369.7585,20.582 C368.542167,21.32 367.934,22.2766667 367.934,23.452 C367.934,24.3813333 368.221,25.0851667 368.795,25.5635 C369.369,26.0418333 370.134333,26.281 371.091,26.281 Z" id="Shape"></path>
        </g>
        <g id="April-20,-2022" transform="translate(0.000000, 275.767000)" fill="#00FFFF" fill-rule="nonzero">
            <path d="M14.356,19.314 L5.92,19.314 L3.848,26.233 L0,26.233 L8.029,1.998 L12.395,1.998 L20.424,26.233 L16.428,26.233 L14.356,19.314 Z M13.468,16.317 L12.506,13.061 C12.1606667,11.9016667 11.7721667,10.5573333 11.3405,9.028 C10.9088333,7.49866667 10.5943333,6.38866667 10.397,5.698 C10.3723333,5.50066667 10.3106667,5.26633333 10.212,4.995 L10.064,4.995 C9.27466667,8.029 8.52233333,10.7176667 7.807,13.061 L6.845,16.317 L13.468,16.317 Z" id="Shape"></path>
            <path d="M23.273,8.14 L26.344,8.14 L26.64,10.138 L26.751,10.138 C28.6996667,8.51 30.562,7.696 32.338,7.696 C34.6073333,7.696 36.3648333,8.52233333 37.6105,10.175 C38.8561667,11.8276667 39.479,14.0723333 39.479,16.909 C39.479,18.907 39.1213333,20.6398333 38.406,22.1075 C37.6906667,23.5751667 36.741,24.7036667 35.557,25.493 C34.373,26.2823333 33.0903333,26.677 31.709,26.677 C30.1303333,26.677 28.527,25.9986667 26.899,24.642 L27.01,27.713 L27.01,33.596 L23.273,33.596 L23.273,8.14 Z M30.969,23.569 C32.3503333,23.569 33.4726667,22.9831667 34.336,21.8115 C35.1993333,20.6398333 35.631,19.018 35.631,16.946 C35.631,12.8513333 34.2003333,10.804 31.339,10.804 C30.007,10.804 28.564,11.544 27.01,13.024 L27.01,21.904 C28.3173333,23.014 29.637,23.569 30.969,23.569 Z" id="Shape"></path>
            <path d="M43.993,8.14 L47.064,8.14 L47.36,11.396 L47.471,11.396 C48.1123333,10.2366667 48.8831667,9.33016667 49.7835,8.6765 C50.6838333,8.02283333 51.6273333,7.696 52.614,7.696 C53.428,7.696 54.094,7.81933333 54.612,8.066 L53.946,11.322 C53.28,11.1246667 52.6756667,11.026 52.133,11.026 C51.319,11.026 50.5173333,11.3405 49.728,11.9695 C48.9386667,12.5985 48.2726667,13.5913333 47.73,14.948 L47.73,26.233 L43.993,26.233 L43.993,8.14 Z" id="Path"></path>
            <path d="M57.387,8.14 L61.124,8.14 L61.124,26.233 L57.387,26.233 L57.387,8.14 Z M59.274,4.736 C58.608,4.736 58.0591667,4.52633333 57.6275,4.107 C57.1958333,3.68766667 56.98,3.145 56.98,2.479 C56.98,1.83766667 57.1958333,1.30733333 57.6275,0.888 C58.0591667,0.468666667 58.608,0.259 59.274,0.259 C59.94,0.259 60.4888333,0.468666667 60.9205,0.888 C61.3521667,1.30733333 61.568,1.83766667 61.568,2.479 C61.568,3.145 61.3521667,3.68766667 60.9205,4.107 C60.4888333,4.52633333 59.94,4.736 59.274,4.736 Z" id="Shape"></path>
            <path d="M70.559,26.677 C69.2516667,26.677 68.302,26.2823333 67.71,25.493 C67.118,24.7036667 66.822,23.5443333 66.822,22.015 L66.822,0 L70.559,0 L70.559,22.237 C70.559,22.7056667 70.6453333,23.051 70.818,23.273 C70.9906667,23.495 71.2003333,23.606 71.447,23.606 C71.669,23.606 71.891,23.5813333 72.113,23.532 L72.594,26.344 C72.0266667,26.566 71.3483333,26.677 70.559,26.677 Z" id="Path"></path>
            <path d="M82.584,24.05 C85.2726667,21.4106667 87.3385,19.3078333 88.7815,17.7415 C90.2245,16.1751667 91.3591667,14.7075 92.1855,13.3385 C93.0118333,11.9695 93.425,10.693 93.425,9.509 C93.425,8.177 93.0673333,7.12866667 92.352,6.364 C91.6366667,5.59933333 90.613,5.217 89.281,5.217 C87.6776667,5.217 86.0866667,6.11733333 84.508,7.918 L82.399,5.846 C83.509,4.63733333 84.6375,3.73083333 85.7845,3.1265 C86.9315,2.52216667 88.2573333,2.22 89.762,2.22 C91.982,2.22 93.7518333,2.8675 95.0715,4.1625 C96.3911667,5.4575 97.051,7.178 97.051,9.324 C97.051,10.6806667 96.6748333,12.0743333 95.9225,13.505 C95.1701667,14.9356667 94.1835,16.3725 92.9625,17.8155 C91.7415,19.2585 90.095,21.0776667 88.023,23.273 C89.7003333,23.125 91.02,23.051 91.982,23.051 L98.198,23.051 L98.198,26.233 L82.584,26.233 L82.584,24.05 Z" id="Path"></path>
            <path d="M109.224,26.677 C106.782,26.677 104.870333,25.604 103.489,23.458 C102.107667,21.312 101.417,18.278 101.417,14.356 C101.417,10.434 102.107667,7.43083333 103.489,5.3465 C104.870333,3.26216667 106.782,2.22 109.224,2.22 C111.666,2.22 113.577667,3.26833333 114.959,5.365 C116.340333,7.46166667 117.031,10.4586667 117.031,14.356 C117.031,18.278 116.340333,21.312 114.959,23.458 C113.577667,25.604 111.666,26.677 109.224,26.677 Z M109.224,23.717 C110.531333,23.717 111.561167,22.9646667 112.3135,21.46 C113.065833,19.9553333 113.442,17.5873333 113.442,14.356 C113.442,8.23866667 112.036,5.18 109.224,5.18 C106.412,5.18 105.006,8.23866667 105.006,14.356 C105.006,17.5873333 105.382167,19.9553333 106.1345,21.46 C106.886833,22.9646667 107.916667,23.717 109.224,23.717 Z" id="Shape"></path>
            <path d="M123.617,21.386 C124.529667,21.386 125.245,21.7436667 125.763,22.459 C126.281,23.1743333 126.54,24.161 126.54,25.419 C126.54,27.121 126.071333,28.6133333 125.134,29.896 C124.196667,31.1786667 122.877,32.1406667 121.175,32.782 L120.324,30.673 C121.458667,30.2043333 122.334333,29.5815 122.951,28.8045 C123.567667,28.0275 123.888333,27.1456667 123.913,26.159 C123.839,26.1836667 123.715667,26.196 123.543,26.196 C122.852333,26.196 122.260333,25.9801667 121.767,25.5485 C121.273667,25.1168333 121.027,24.531 121.027,23.791 C121.027,23.0756667 121.279833,22.496 121.7855,22.052 C122.291167,21.608 122.901667,21.386 123.617,21.386 Z" id="Path"></path>
            <path d="M137.196,24.05 C139.884667,21.4106667 141.9505,19.3078333 143.3935,17.7415 C144.8365,16.1751667 145.971167,14.7075 146.7975,13.3385 C147.623833,11.9695 148.037,10.693 148.037,9.509 C148.037,8.177 147.679333,7.12866667 146.964,6.364 C146.248667,5.59933333 145.225,5.217 143.893,5.217 C142.289667,5.217 140.698667,6.11733333 139.12,7.918 L137.011,5.846 C138.121,4.63733333 139.2495,3.73083333 140.3965,3.1265 C141.5435,2.52216667 142.869333,2.22 144.374,2.22 C146.594,2.22 148.363833,2.8675 149.6835,4.1625 C151.003167,5.4575 151.663,7.178 151.663,9.324 C151.663,10.6806667 151.286833,12.0743333 150.5345,13.505 C149.782167,14.9356667 148.7955,16.3725 147.5745,17.8155 C146.3535,19.2585 144.707,21.0776667 142.635,23.273 C144.312333,23.125 145.632,23.051 146.594,23.051 L152.81,23.051 L152.81,26.233 L137.196,26.233 L137.196,24.05 Z" id="Path"></path>
            <path d="M163.836,26.677 C161.394,26.677 159.482333,25.604 158.101,23.458 C156.719667,21.312 156.029,18.278 156.029,14.356 C156.029,10.434 156.719667,7.43083333 158.101,5.3465 C159.482333,3.26216667 161.394,2.22 163.836,2.22 C166.278,2.22 168.189667,3.26833333 169.571,5.365 C170.952333,7.46166667 171.643,10.4586667 171.643,14.356 C171.643,18.278 170.952333,21.312 169.571,23.458 C168.189667,25.604 166.278,26.677 163.836,26.677 Z M163.836,23.717 C165.143333,23.717 166.173167,22.9646667 166.9255,21.46 C167.677833,19.9553333 168.054,17.5873333 168.054,14.356 C168.054,8.23866667 166.648,5.18 163.836,5.18 C161.024,5.18 159.618,8.23866667 159.618,14.356 C159.618,17.5873333 159.994167,19.9553333 160.7465,21.46 C161.498833,22.9646667 162.528667,23.717 163.836,23.717 Z" id="Shape"></path>
            <path d="M174.64,24.05 C177.328667,21.4106667 179.3945,19.3078333 180.8375,17.7415 C182.2805,16.1751667 183.415167,14.7075 184.2415,13.3385 C185.067833,11.9695 185.481,10.693 185.481,9.509 C185.481,8.177 185.123333,7.12866667 184.408,6.364 C183.692667,5.59933333 182.669,5.217 181.337,5.217 C179.733667,5.217 178.142667,6.11733333 176.564,7.918 L174.455,5.846 C175.565,4.63733333 176.6935,3.73083333 177.8405,3.1265 C178.9875,2.52216667 180.313333,2.22 181.818,2.22 C184.038,2.22 185.807833,2.8675 187.1275,4.1625 C188.447167,5.4575 189.107,7.178 189.107,9.324 C189.107,10.6806667 188.730833,12.0743333 187.9785,13.505 C187.226167,14.9356667 186.2395,16.3725 185.0185,17.8155 C183.7975,19.2585 182.151,21.0776667 180.079,23.273 C181.756333,23.125 183.076,23.051 184.038,23.051 L190.254,23.051 L190.254,26.233 L174.64,26.233 L174.64,24.05 Z" id="Path"></path>
            <path d="M193.362,24.05 C196.050667,21.4106667 198.1165,19.3078333 199.5595,17.7415 C201.0025,16.1751667 202.137167,14.7075 202.9635,13.3385 C203.789833,11.9695 204.203,10.693 204.203,9.509 C204.203,8.177 203.845333,7.12866667 203.13,6.364 C202.414667,5.59933333 201.391,5.217 200.059,5.217 C198.455667,5.217 196.864667,6.11733333 195.286,7.918 L193.177,5.846 C194.287,4.63733333 195.4155,3.73083333 196.5625,3.1265 C197.7095,2.52216667 199.035333,2.22 200.54,2.22 C202.76,2.22 204.529833,2.8675 205.8495,4.1625 C207.169167,5.4575 207.829,7.178 207.829,9.324 C207.829,10.6806667 207.452833,12.0743333 206.7005,13.505 C205.948167,14.9356667 204.9615,16.3725 203.7405,17.8155 C202.5195,19.2585 200.873,21.0776667 198.801,23.273 C200.478333,23.125 201.798,23.051 202.76,23.051 L208.976,23.051 L208.976,26.233 L193.362,26.233 L193.362,24.05 Z" id="Path"></path>
        </g>
    </g>
</svg>