<?xml version="1.0" encoding="UTF-8"?>
<svg width="637px" height="309px" viewBox="0 0 637 309" version="1.1" xmlns="http://www.w3.org/2000/svg" xmlns:xlink="http://www.w3.org/1999/xlink" style="background: #000000;">
    <!-- Generator: Sketch 47.1 (45422) - http://www.bohemiancoding.com/sketch -->
    <title>Artboard Copy</title>
    <desc>Created with Sketch.</desc>
    <defs></defs>
    <g id="Page-1" stroke="none" stroke-width="1" fill="none" fill-rule="evenodd">
        <g id="Artboard-Copy">
            <path d="M0.72,6.2 L13.392,6.2 L15.984,26.648 L17.568,41.336 L17.856,41.336 L20.448,26.648 L24.912,6.2 L35.28,6.2 L39.744,26.648 L41.904,38.816 L42.336,41.336 L42.624,41.336 L44.208,26.648 L46.8,6.2 L58.608,6.2 L50.832,53 L35.136,53 L31.536,34.424 C30.9119969,31.2079839 30.3360026,27.5600204 29.808,23.48 L29.52,23.48 L29.232,25.496 C28.6079969,29.7680214 28.1280017,32.7439916 27.792,34.424 L24.336,53 L8.928,53 L0.72,6.2 Z M70.704,51.596 C67.9679863,50.0839924 65.7720083,47.9000143 64.116,45.044 C62.4599917,42.1879857 61.632,38.8400192 61.632,35 C61.632,31.1599808 62.4599917,27.8120143 64.116,24.956 C65.7720083,22.0999857 67.9679863,19.9160076 70.704,18.404 C73.4400137,16.8919924 76.3679844,16.136 79.488,16.136 C82.6080156,16.136 85.5359863,16.8919924 88.272,18.404 C91.0080137,19.9160076 93.2039917,22.0999857 94.86,24.956 C96.5160083,27.8120143 97.344,31.1599808 97.344,35 C97.344,38.8400192 96.5160083,42.1879857 94.86,45.044 C93.2039917,47.9000143 91.0080137,50.0839924 88.272,51.596 C85.5359863,53.1080076 82.6080156,53.864 79.488,53.864 C76.3679844,53.864 73.4400137,53.1080076 70.704,51.596 Z M84.672,35 C84.672,29.0479702 82.9440173,26.072 79.488,26.072 C76.0319827,26.072 74.304,29.0479702 74.304,35 C74.304,40.9520298 76.0319827,43.928 79.488,43.928 C82.9440173,43.928 84.672,40.9520298 84.672,35 Z M103.824,17 L113.904,17 L114.768,23.192 L115.056,23.192 C116.304006,20.8399882 117.851991,19.0760059 119.7,17.9 C121.548009,16.7239941 123.407991,16.136 125.28,16.136 C127.152009,16.136 128.639994,16.3759976 129.744,16.856 L127.728,27.512 C125.999991,27.1279981 124.656005,26.936 123.696,26.936 C122.255993,26.936 120.852007,27.4279951 119.484,28.412 C118.115993,29.3960049 117.024004,30.9199897 116.208,32.984 L116.208,53 L103.824,53 L103.824,17 Z M133.92,2.888 L146.016,2.888 L146.016,29.528 L146.304,29.528 L156.24,17 L169.632,17 L156.816,31.976 L170.352,53 L156.96,53 L149.76,40.184 L146.016,44.36 L146.016,53 L133.92,53 L133.92,2.888 Z M174.816,17 L187.2,17 L187.2,53 L174.816,53 L174.816,17 Z M176.256,10.808 C175.007994,9.65599424 174.384,8.16800912 174.384,6.344 C174.384,4.51999088 175.007994,3.03200576 176.256,1.88 C177.504006,0.72799424 179.08799,0.152 181.008,0.152 C182.92801,0.152 184.511994,0.72799424 185.76,1.88 C187.008006,3.03200576 187.632,4.51999088 187.632,6.344 C187.632,8.16800912 187.008006,9.65599424 185.76,10.808 C184.511994,11.9600058 182.92801,12.536 181.008,12.536 C179.08799,12.536 177.504006,11.9600058 176.256,10.808 Z M195.552,17 L205.632,17 L206.496,21.32 L206.784,21.32 C208.464008,19.7359921 210.215991,18.4760047 212.04,17.54 C213.864009,16.6039953 215.903989,16.136 218.16,16.136 C222.000019,16.136 224.831991,17.4199872 226.656,19.988 C228.480009,22.5560128 229.392,26.1679767 229.392,30.824 L229.392,53 L217.008,53 L217.008,32.408 C217.008,30.199989 216.732003,28.6880041 216.18,27.872 C215.627997,27.0559959 214.704006,26.648 213.408,26.648 C212.351995,26.648 211.440004,26.851998 210.672,27.26 C209.903996,27.668002 208.992005,28.375995 207.936,29.384 L207.936,53 L195.552,53 L195.552,17 Z M239.652,65.672 C236.843986,64.2319928 235.44,61.9760154 235.44,58.904 C235.44,56.0719858 237.119983,53.7680089 240.48,51.992 L240.48,51.704 C238.271989,50.1679923 237.168,48.104013 237.168,45.512 C237.168,44.311994 237.527996,43.1000061 238.248,41.876 C238.968004,40.6519939 239.951994,39.6080043 241.2,38.744 L241.2,38.456 C239.807993,37.4959952 238.644005,36.212008 237.708,34.604 C236.771995,32.995992 236.304,31.2080098 236.304,29.24 C236.304,26.4079858 237.011993,24.0080098 238.428,22.04 C239.844007,20.0719902 241.727988,18.5960049 244.08,17.612 C246.432012,16.6279951 248.975986,16.136 251.712,16.136 C253.824011,16.136 255.743991,16.4239971 257.472,17 L270.864,17 L270.864,25.928 L265.68,25.928 C266.064002,27.0800058 266.256,28.3279933 266.256,29.672 C266.256,33.7040202 264.912013,36.7039902 262.224,38.672 C259.535987,40.6400098 256.032022,41.624 251.712,41.624 C250.511994,41.624 249.168007,41.4560017 247.68,41.12 C247.343998,41.4560017 247.116001,41.7559987 246.996,42.02 C246.875999,42.2840013 246.816,42.6799974 246.816,43.208 C246.816,43.9760038 247.199996,44.5279983 247.968,44.864 C248.736004,45.2000017 250.031991,45.368 251.856,45.368 L257.256,45.368 C261.912023,45.368 265.439988,46.1239924 267.84,47.636 C270.240012,49.1480076 271.44,51.5119839 271.44,54.728 C271.44,57.320013 270.588009,59.5999902 268.884,61.568 C267.179991,63.5360098 264.756016,65.0719945 261.612,66.176 C258.467984,67.2800055 254.784021,67.832 250.56,67.832 C246.095978,67.832 242.460014,67.1120072 239.652,65.672 Z M254.556,33.02 C255.252003,32.1799958 255.6,30.9200084 255.6,29.24 C255.6,27.6559921 255.252003,26.4440042 254.556,25.604 C253.859997,24.7639958 252.912006,24.344 251.712,24.344 C250.511994,24.344 249.564003,24.7639958 248.868,25.604 C248.171997,26.4440042 247.824,27.6559921 247.824,29.24 C247.824,30.9200084 248.171997,32.1799958 248.868,33.02 C249.564003,33.8600042 250.511994,34.28 251.712,34.28 C252.912006,34.28 253.859997,33.8600042 254.556,33.02 Z M257.652,59.3 C258.972007,58.699997 259.632,57.896005 259.632,56.888 C259.632,56.0239957 259.260004,55.4480014 258.516,55.16 C257.771996,54.8719986 256.536009,54.728 254.808,54.728 L252,54.728 C249.551988,54.728 247.824005,54.5840014 246.816,54.296 C245.951996,55.1600043 245.52,56.0239957 245.52,56.888 C245.52,57.9920055 246.155994,58.8199972 247.428,59.372 C248.700006,59.9240028 250.415989,60.2 252.576,60.2 C254.64001,60.2 256.331993,59.900003 257.652,59.3 Z M288.72,17.792 L296.064,17.792 L300.744,36.944 L302.184,44.144 L302.688,46.952 L302.976,46.952 C303.888005,42.6799786 304.655997,39.344012 305.28,36.944 L310.248,17.792 L317.016,17.792 L322.056,36.944 L323.856,44.36 C323.952,44.9360029 324.143999,45.7999942 324.432,46.952 L324.72,46.952 C325.248003,44.4079873 325.583999,42.7280041 325.728,41.912 L326.736,36.944 L331.344,17.792 L338.184,17.792 L329.04,53 L320.328,53 L315.792,35.504 C315.263997,33.3919894 314.736003,31.0160132 314.208,28.376 L313.56,25.28 L313.272,25.28 C312.359995,29.9360233 311.616003,33.367989 311.04,35.576 L306.648,53 L298.224,53 L288.72,17.792 Z M345.456,17.792 L352.728,17.792 L352.728,53 L345.456,53 L345.456,17.792 Z M345.924,9.944 C345.083996,9.12799592 344.664,8.07200648 344.664,6.776 C344.664,5.52799376 345.083996,4.49600408 345.924,3.68 C346.764004,2.86399592 347.831994,2.456 349.128,2.456 C350.424006,2.456 351.491996,2.86399592 352.332,3.68 C353.172004,4.49600408 353.592,5.52799376 353.592,6.776 C353.592,8.07200648 353.172004,9.12799592 352.332,9.944 C351.491996,10.7600041 350.424006,11.168 349.128,11.168 C347.831994,11.168 346.764004,10.7600041 345.924,9.944 Z M364.968,41.552 L364.968,23.624 L359.856,23.624 L359.856,18.152 L365.328,17.792 L366.192,8.072 L372.24,8.072 L372.24,17.792 L381.456,17.792 L381.456,23.624 L372.24,23.624 L372.24,41.552 C372.24,43.7120108 372.647996,45.3319946 373.464,46.412 C374.280004,47.4920054 375.599991,48.032 377.424,48.032 C378.528006,48.032 379.799993,47.7440029 381.24,47.168 L382.536,52.568 C379.943987,53.4320043 377.64001,53.864 375.624,53.864 C368.519964,53.864 364.968,49.760041 364.968,41.552 Z M389.088,1.952 L396.36,1.952 L396.36,15.488 L396.072,22.472 C397.896009,20.7439914 399.707991,19.3880049 401.508,18.404 C403.308009,17.4199951 405.311989,16.928 407.52,16.928 C414.720036,16.928 418.32,21.5599537 418.32,30.824 L418.32,53 L411.048,53 L411.048,31.76 C411.048,28.7359849 410.580005,26.5520067 409.644,25.208 C408.707995,23.8639933 407.184011,23.192 405.072,23.192 C403.487992,23.192 402.072006,23.5639963 400.824,24.308 C399.575994,25.0520037 398.088009,26.2879914 396.36,28.016 L396.36,53 L389.088,53 L389.088,1.952 Z" id="Working-with" fill="#FFFF02"></path>
            <path d="M4.746,184.642 L1.47,184.642 L1.47,181.786 L5.082,181.786 L5.796,176.032 L2.31,176.032 L2.31,173.176 L6.132,173.176 L7.098,165.7 L9.702,165.7 L8.778,173.176 L13.986,173.176 L14.952,165.7 L17.556,165.7 L16.632,173.176 L19.992,173.176 L19.992,176.032 L16.296,176.032 L15.582,181.786 L19.152,181.786 L19.152,184.642 L15.246,184.642 L14.238,193 L11.592,193 L12.6,184.642 L7.392,184.642 L6.384,193 L3.738,193 L4.746,184.642 Z M12.936,181.786 L13.65,176.032 L8.442,176.032 L7.728,181.786 L12.936,181.786 Z M24.99,191.887 C23.8699944,190.808995 23.31,189.360009 23.31,187.54 C23.31,185.327989 24.2899902,183.627006 26.25,182.437 C28.2100098,181.246994 31.3319786,180.414002 35.616,179.938 C35.5599997,176.913985 34.2440129,175.402 31.668,175.402 C29.9319913,175.402 27.9580111,176.101993 25.746,177.502 L24.15,174.646 C26.950014,172.853991 29.7079864,171.958 32.424,171.958 C34.9160125,171.958 36.7779938,172.706993 38.01,174.205 C39.2420062,175.703007 39.858,177.851986 39.858,180.652 L39.858,193 L36.372,193 L36.036,190.648 L35.91,190.648 C33.6419887,192.55201 31.4580105,193.504 29.358,193.504 C27.565991,193.504 26.1100056,192.965005 24.99,191.887 Z M33.096,189.556 C33.8520038,189.163998 34.6919954,188.548004 35.616,187.708 L35.616,182.626 C32.6479852,182.990002 30.5410062,183.549996 29.295,184.306 C28.0489938,185.062004 27.426,186.041994 27.426,187.246 C27.426,188.198005 27.7199971,188.918998 28.308,189.409 C28.8960029,189.899002 29.6799951,190.144 30.66,190.144 C31.5280043,190.144 32.3399962,189.948002 33.096,189.556 Z M44.604,189.514 L50.652,189.514 L50.652,171.034 L45.738,171.034 L45.738,168.346 C48.1180119,167.925998 50.105992,167.226005 51.702,166.246 L54.894,166.246 L54.894,189.514 L60.27,189.514 L60.27,193 L44.604,193 L44.604,189.514 Z M64.05,189.514 L70.098,189.514 L70.098,171.034 L65.184,171.034 L65.184,168.346 C67.5640119,167.925998 69.551992,167.226005 71.148,166.246 L74.34,166.246 L74.34,189.514 L79.716,189.514 L79.716,193 L64.05,193 L64.05,189.514 Z M83.202,201.19 L84,197.872 C84.6440032,198.068001 85.1479982,198.166 85.512,198.166 C87.5280101,198.166 88.9699957,196.864013 89.838,194.26 L90.258,192.874 L82.11,172.462 L86.436,172.462 L90.258,183.088 L91.518,186.91 L92.148,188.884 L92.316,188.884 C92.6240015,187.875995 92.8619992,187.008004 93.03,186.28 L93.954,183.088 L97.272,172.462 L101.388,172.462 L93.828,194.26 C92.9599957,196.668012 91.9100062,198.494994 90.678,199.741 C89.4459938,200.987006 87.8080102,201.61 85.764,201.61 C84.8399954,201.61 83.9860039,201.470001 83.202,201.19 Z M111.132,169.102 L103.026,169.102 L103.026,165.49 L123.522,165.49 L123.522,169.102 L115.416,169.102 L115.416,193 L111.132,193 L111.132,169.102 Z M132.489,191.761 C130.682991,190.598994 129.276005,188.933011 128.268,186.763 C127.259995,184.592989 126.756,182.052015 126.756,179.14 C126.756,176.227985 127.259995,173.708011 128.268,171.58 C129.276005,169.451989 130.682991,167.821006 132.489,166.687 C134.295009,165.552994 136.373988,164.986 138.726,164.986 C141.078012,164.986 143.156991,165.552994 144.963,166.687 C146.769009,167.821006 148.175995,169.451989 149.184,171.58 C150.192005,173.708011 150.696,176.227985 150.696,179.14 C150.696,182.052015 150.192005,184.592989 149.184,186.763 C148.175995,188.933011 146.769009,190.598994 144.963,191.761 C143.156991,192.923006 141.078012,193.504 138.726,193.504 C136.373988,193.504 134.295009,192.923006 132.489,191.761 Z M142.716,188.464 C143.864006,187.595996 144.745997,186.357008 145.362,184.747 C145.978003,183.136992 146.286,181.268011 146.286,179.14 C146.286,175.919984 145.600007,173.379009 144.228,171.517 C142.855993,169.654991 141.022011,168.724 138.726,168.724 C136.429989,168.724 134.596007,169.654991 133.224,171.517 C131.851993,173.379009 131.166,175.919984 131.166,179.14 C131.166,181.268011 131.473997,183.136992 132.09,184.747 C132.706003,186.357008 133.587994,187.595996 134.736,188.464 C135.884006,189.332004 137.213992,189.766 138.726,189.766 C140.238008,189.766 141.567994,189.332004 142.716,188.464 Z M160.86,191.824 C159.011991,190.703994 157.556005,189.073011 156.492,186.931 C155.427995,184.788989 154.896,182.248015 154.896,179.308 C154.896,176.395985 155.441995,173.862011 156.534,171.706 C157.626005,169.549989 159.116991,167.891006 161.007,166.729 C162.897009,165.566994 165.003988,164.986 167.328,164.986 C168.924008,164.986 170.386993,165.307997 171.717,165.952 C173.047007,166.596003 174.173995,167.421995 175.098,168.43 L172.788,171.202 C171.191992,169.549992 169.40001,168.724 167.412,168.724 C165.815992,168.724 164.409006,169.150996 163.191,170.005 C161.972994,170.859004 161.021003,172.069992 160.335,173.638 C159.648997,175.206008 159.306,177.053989 159.306,179.182 C159.306,182.458016 160.026993,185.040991 161.469,186.931 C162.911007,188.821009 164.849988,189.766 167.286,189.766 C169.582011,189.766 171.611991,188.78601 173.376,186.826 L175.686,189.514 C173.417989,192.174013 170.562017,193.504 167.118,193.504 C164.793988,193.504 162.708009,192.944006 160.86,191.824 Z M180.642,191.887 C179.521994,190.808995 178.962,189.360009 178.962,187.54 C178.962,185.327989 179.94199,183.627006 181.902,182.437 C183.86201,181.246994 186.983979,180.414002 191.268,179.938 C191.212,176.913985 189.896013,175.402 187.32,175.402 C185.583991,175.402 183.610011,176.101993 181.398,177.502 L179.802,174.646 C182.602014,172.853991 185.359986,171.958 188.076,171.958 C190.568012,171.958 192.429994,172.706993 193.662,174.205 C194.894006,175.703007 195.51,177.851986 195.51,180.652 L195.51,193 L192.024,193 L191.688,190.648 L191.562,190.648 C189.293989,192.55201 187.110011,193.504 185.01,193.504 C183.217991,193.504 181.762006,192.965005 180.642,191.887 Z M188.748,189.556 C189.504004,189.163998 190.343995,188.548004 191.268,187.708 L191.268,182.626 C188.299985,182.990002 186.193006,183.549996 184.947,184.306 C183.700994,185.062004 183.078,186.041994 183.078,187.246 C183.078,188.198005 183.371997,188.918998 183.96,189.409 C184.548003,189.899002 185.331995,190.144 186.312,190.144 C187.180004,190.144 187.991996,189.948002 188.748,189.556 Z M201.6,172.462 L205.086,172.462 L205.422,175.318 L205.548,175.318 C206.556005,174.281995 207.570995,173.463003 208.593,172.861 C209.615005,172.258997 210.713994,171.958 211.89,171.958 C214.718014,171.958 216.607995,173.217987 217.56,175.738 C218.708006,174.505994 219.806995,173.568003 220.857,172.924 C221.907005,172.279997 223.033994,171.958 224.238,171.958 C226.338011,171.958 227.912995,172.650993 228.963,174.037 C230.013005,175.423007 230.538,177.431987 230.538,180.064 L230.538,193 L226.296,193 L226.296,180.61 C226.296,178.845991 226.023003,177.572004 225.477,176.788 C224.930997,176.003996 224.056006,175.612 222.852,175.612 C221.451993,175.612 219.898009,176.549991 218.19,178.426 L218.19,193 L213.948,193 L213.948,180.61 C213.948,178.845991 213.675003,177.572004 213.129,176.788 C212.582997,176.003996 211.708006,175.612 210.504,175.612 C209.103993,175.612 207.550009,176.549991 205.842,178.426 L205.842,193 L201.6,193 L201.6,172.462 Z M236.754,172.462 L240.24,172.462 L240.576,174.73 L240.702,174.73 C242.914011,172.881991 245.02799,171.958 247.044,171.958 C249.620013,171.958 251.614993,172.895991 253.029,174.772 C254.443007,176.648009 255.15,179.195984 255.15,182.416 C255.15,184.684011 254.744004,186.650992 253.932,188.317 C253.119996,189.983008 252.042007,191.263996 250.698,192.16 C249.353993,193.056004 247.898008,193.504 246.33,193.504 C244.537991,193.504 242.718009,192.734008 240.87,191.194 L240.996,194.68 L240.996,201.358 L236.754,201.358 L236.754,172.462 Z M249.312,187.981 C250.292005,186.650993 250.782,184.810012 250.782,182.458 C250.782,177.809977 249.158016,175.486 245.91,175.486 C244.397992,175.486 242.760009,176.325992 240.996,178.006 L240.996,188.086 C242.480007,189.346006 243.977992,189.976 245.49,189.976 C247.058008,189.976 248.331995,189.311007 249.312,187.981 Z" id="#a11yTOCamp" fill="#736FE6"></path>
            <path d="M5.184,82.2 L17.568,82.2 L17.568,99.624 L31.536,99.624 L31.536,82.2 L43.92,82.2 L43.92,129 L31.536,129 L31.536,110.424 L17.568,110.424 L17.568,129 L5.184,129 L5.184,82.2 Z M53.28,93 L65.664,93 L65.664,129 L53.28,129 L53.28,93 Z M54.72,86.808 C53.4719938,85.6559942 52.848,84.1680091 52.848,82.344 C52.848,80.5199909 53.4719938,79.0320058 54.72,77.88 C55.9680062,76.7279942 57.5519904,76.152 59.472,76.152 C61.3920096,76.152 62.9759938,76.7279942 64.224,77.88 C65.4720062,79.0320058 66.096,80.5199909 66.096,82.344 C66.096,84.1680091 65.4720062,85.6559942 64.224,86.808 C62.9759938,87.9600058 61.3920096,88.536 59.472,88.536 C57.5519904,88.536 55.9680062,87.9600058 54.72,86.808 Z M76.212,141.672 C73.403986,140.231993 72,137.976015 72,134.904 C72,132.071986 73.6799832,129.768009 77.04,127.992 L77.04,127.704 C74.831989,126.167992 73.728,124.104013 73.728,121.512 C73.728,120.311994 74.0879964,119.100006 74.808,117.876 C75.5280036,116.651994 76.5119938,115.608004 77.76,114.744 L77.76,114.456 C76.367993,113.495995 75.2040047,112.212008 74.268,110.604 C73.3319953,108.995992 72.864,107.20801 72.864,105.24 C72.864,102.407986 73.5719929,100.00801 74.988,98.04 C76.4040071,96.0719902 78.2879882,94.5960049 80.64,93.612 C82.9920118,92.6279951 85.5359863,92.136 88.272,92.136 C90.3840106,92.136 92.3039914,92.4239971 94.032,93 L107.424,93 L107.424,101.928 L102.24,101.928 C102.624002,103.080006 102.816,104.327993 102.816,105.672 C102.816,109.70402 101.472013,112.70399 98.784,114.672 C96.0959866,116.64001 92.5920216,117.624 88.272,117.624 C87.071994,117.624 85.7280074,117.456002 84.24,117.12 C83.9039983,117.456002 83.6760006,117.755999 83.556,118.02 C83.4359994,118.284001 83.376,118.679997 83.376,119.208 C83.376,119.976004 83.7599962,120.527998 84.528,120.864 C85.2960038,121.200002 86.5919909,121.368 88.416,121.368 L93.816,121.368 C98.4720233,121.368 101.999988,122.123992 104.4,123.636 C106.800012,125.148008 108,127.511984 108,130.728 C108,133.320013 107.148009,135.59999 105.444,137.568 C103.739991,139.53601 101.316016,141.071994 98.172,142.176 C95.0279843,143.280006 91.3440211,143.832 87.12,143.832 C82.6559777,143.832 79.020014,143.112007 76.212,141.672 Z M91.116,109.02 C91.8120035,108.179996 92.16,106.920008 92.16,105.24 C92.16,103.655992 91.8120035,102.444004 91.116,101.604 C90.4199965,100.763996 89.472006,100.344 88.272,100.344 C87.071994,100.344 86.1240035,100.763996 85.428,101.604 C84.7319965,102.444004 84.384,103.655992 84.384,105.24 C84.384,106.920008 84.7319965,108.179996 85.428,109.02 C86.1240035,109.860004 87.071994,110.28 88.272,110.28 C89.472006,110.28 90.4199965,109.860004 91.116,109.02 Z M94.212,135.3 C95.5320066,134.699997 96.192,133.896005 96.192,132.888 C96.192,132.023996 95.8200037,131.448001 95.076,131.16 C94.3319963,130.871999 93.0960086,130.728 91.368,130.728 L88.56,130.728 C86.1119878,130.728 84.384005,130.584001 83.376,130.296 C82.5119957,131.160004 82.08,132.023996 82.08,132.888 C82.08,133.992006 82.7159936,134.819997 83.988,135.372 C85.2600064,135.924003 86.9759892,136.2 89.136,136.2 C91.2000103,136.2 92.8919934,135.900003 94.212,135.3 Z M113.328,78.888 L125.712,78.888 L125.712,90.552 L125.136,96.744 C126.672008,95.3999933 128.303991,94.2960043 130.032,93.432 C131.760009,92.5679957 133.727989,92.136 135.936,92.136 C139.776019,92.136 142.607991,93.4199872 144.432,95.988 C146.256009,98.5560128 147.168,102.167977 147.168,106.824 L147.168,129 L134.784,129 L134.784,108.408 C134.784,106.199989 134.508003,104.688004 133.956,103.872 C133.403997,103.055996 132.480006,102.648 131.184,102.648 C130.127995,102.648 129.216004,102.851998 128.448,103.26 C127.679996,103.668002 126.768005,104.375995 125.712,105.384 L125.712,129 L113.328,129 L113.328,78.888 Z M179.748,127.164 C176.363983,125.363991 173.66401,122.664018 171.648,119.064 C169.63199,115.463982 168.624,111.096026 168.624,105.96 C168.624,100.919975 169.66799,96.5400186 171.756,92.82 C173.84401,89.0999814 176.603983,86.2560098 180.036,84.288 C183.468017,82.3199902 187.19998,81.336 191.232,81.336 C194.112014,81.336 196.799988,81.9119942 199.296,83.064 C201.792012,84.2160058 203.951991,85.7039909 205.776,87.528 L199.296,95.448 C197.999994,94.2959942 196.752006,93.4320029 195.552,92.856 C194.351994,92.2799971 193.008007,91.992 191.52,91.992 C189.695991,91.992 188.004008,92.5439945 186.444,93.648 C184.883992,94.7520055 183.636005,96.3239898 182.7,98.364 C181.763995,100.40401 181.296,102.791986 181.296,105.528 C181.296,109.848022 182.207991,113.207988 184.032,115.608 C185.856009,118.008012 188.303985,119.208 191.376,119.208 C194.544016,119.208 197.375988,117.864013 199.872,115.176 L206.352,122.952 C204.38399,125.256012 202.092013,126.983994 199.476,128.136 C196.859987,129.288006 194.016015,129.864 190.944,129.864 C186.86398,129.864 183.132017,128.964009 179.748,127.164 Z M219.024,127.596 C216.287986,126.083992 214.092008,123.900014 212.436,121.044 C210.779992,118.187986 209.952,114.840019 209.952,111 C209.952,107.159981 210.779992,103.812014 212.436,100.956 C214.092008,98.0999857 216.287986,95.9160076 219.024,94.404 C221.760014,92.8919924 224.687984,92.136 227.808,92.136 C230.928016,92.136 233.855986,92.8919924 236.592,94.404 C239.328014,95.9160076 241.523992,98.0999857 243.18,100.956 C244.836008,103.812014 245.664,107.159981 245.664,111 C245.664,114.840019 244.836008,118.187986 243.18,121.044 C241.523992,123.900014 239.328014,126.083992 236.592,127.596 C233.855986,129.108008 230.928016,129.864 227.808,129.864 C224.687984,129.864 221.760014,129.108008 219.024,127.596 Z M232.992,111 C232.992,105.04797 231.264017,102.072 227.808,102.072 C224.351983,102.072 222.624,105.04797 222.624,111 C222.624,116.95203 224.351983,119.928 227.808,119.928 C231.264017,119.928 232.992,116.95203 232.992,111 Z M252.144,93 L262.224,93 L263.088,97.32 L263.376,97.32 C265.056008,95.7359921 266.807991,94.4760047 268.632,93.54 C270.456009,92.6039953 272.495989,92.136 274.752,92.136 C278.592019,92.136 281.423991,93.4199872 283.248,95.988 C285.072009,98.5560128 285.984,102.167977 285.984,106.824 L285.984,129 L273.6,129 L273.6,108.408 C273.6,106.199989 273.324003,104.688004 272.772,103.872 C272.219997,103.055996 271.296006,102.648 270,102.648 C268.943995,102.648 268.032004,102.851998 267.264,103.26 C266.495996,103.668002 265.584005,104.375995 264.528,105.384 L264.528,129 L252.144,129 L252.144,93 Z M298.872,125.976 C296.711989,123.383987 295.632,119.784023 295.632,115.176 L295.632,102.648 L290.88,102.648 L290.88,93.432 L296.352,93 L297.792,83.64 L308.016,83.64 L308.016,93 L316.224,93 L316.224,102.648 L308.016,102.648 L308.016,114.96 C308.016,116.832009 308.411996,118.175996 309.204,118.992 C309.996004,119.808004 311.039994,120.216 312.336,120.216 C313.296005,120.216 314.351994,120.024002 315.504,119.64 L317.376,128.568 C314.591986,129.432004 311.760014,129.864 308.88,129.864 C304.367977,129.864 301.032011,128.568013 298.872,125.976 Z M322.848,93 L332.928,93 L333.792,99.192 L334.08,99.192 C335.328006,96.8399882 336.875991,95.0760059 338.724,93.9 C340.572009,92.7239941 342.431991,92.136 344.304,92.136 C346.176009,92.136 347.663994,92.3759976 348.768,92.856 L346.752,103.512 C345.023991,103.127998 343.680005,102.936 342.72,102.936 C341.279993,102.936 339.876007,103.427995 338.508,104.412 C337.139993,105.396005 336.048004,106.91999 335.232,108.984 L335.232,129 L322.848,129 L322.848,93 Z M356.58,128.352 C354.923992,127.343995 353.664004,126.000008 352.8,124.32 C351.935996,122.639992 351.504,120.79201 351.504,118.776 C351.504,114.983981 353.051985,112.032011 356.148,109.92 C359.244015,107.807989 364.223966,106.392004 371.088,105.672 C370.943999,104.375994 370.464004,103.428003 369.648,102.828 C368.831996,102.227997 367.632008,101.928 366.048,101.928 C364.799994,101.928 363.456007,102.167998 362.016,102.648 C360.575993,103.128002 358.89601,103.895995 356.976,104.952 L352.656,96.888 C357.936026,93.7199842 363.215974,92.136 368.496,92.136 C378.48005,92.136 383.472,97.7519438 383.472,108.984 L383.472,129 L373.392,129 L372.528,125.544 L372.24,125.544 C369.023984,128.424014 365.712017,129.864 362.304,129.864 C360.143989,129.864 358.236008,129.360005 356.58,128.352 Z M368.964,119.748 C369.612003,119.339998 370.319996,118.728004 371.088,117.912 L371.088,113.016 C365.903974,113.784004 363.312,115.367988 363.312,117.768 C363.312,118.584004 363.599997,119.219998 364.176,119.676 C364.752003,120.132002 365.567995,120.36 366.624,120.36 C367.536005,120.36 368.315997,120.156002 368.964,119.748 Z M395.316,128.46 C392.747987,127.523995 390.528009,126.312007 388.656,124.824 L394.128,117.192 C397.392016,119.592012 400.319987,120.792 402.912,120.792 C404.208006,120.792 405.131997,120.612002 405.684,120.252 C406.236003,119.891998 406.512,119.352004 406.512,118.632 C406.512,117.911996 406.128004,117.336002 405.36,116.904 C404.591996,116.471998 403.272009,115.896004 401.4,115.176 C401.159999,115.08 400.896001,114.972001 400.608,114.852 C400.319999,114.731999 399.984002,114.600001 399.6,114.456 C393.55197,112.055988 390.528,108.504024 390.528,103.8 C390.528,100.295982 391.835987,97.4760107 394.452,95.34 C397.068013,93.2039893 400.511979,92.136 404.784,92.136 C407.472013,92.136 409.871989,92.5679957 411.984,93.432 C414.096011,94.2960043 416.11199,95.4479928 418.032,96.888 L412.56,104.232 C409.775986,102.21599 407.328011,101.208 405.216,101.208 C403.103989,101.208 402.048,101.879993 402.048,103.224 C402.048,103.944004 402.431996,104.507998 403.2,104.916 C403.968004,105.324002 405.263991,105.863997 407.088,106.536 C407.472002,106.632 408.047996,106.823999 408.816,107.112 C411.504013,108.120005 413.711991,109.439992 415.44,111.072 C417.168009,112.704008 418.032,114.983985 418.032,117.912 C418.032,121.416018 416.688013,124.283989 414,126.516 C411.311987,128.748011 407.520024,129.864 402.624,129.864 C400.319988,129.864 397.884013,129.396005 395.316,128.46 Z M428.904,125.976 C426.743989,123.383987 425.664,119.784023 425.664,115.176 L425.664,102.648 L420.912,102.648 L420.912,93.432 L426.384,93 L427.824,83.64 L438.048,83.64 L438.048,93 L446.256,93 L446.256,102.648 L438.048,102.648 L438.048,114.96 C438.048,116.832009 438.443996,118.175996 439.236,118.992 C440.028004,119.808004 441.071994,120.216 442.368,120.216 C443.328005,120.216 444.383994,120.024002 445.536,119.64 L447.408,128.568 C444.623986,129.432004 441.792014,129.864 438.912,129.864 C434.399977,129.864 431.064011,128.568013 428.904,125.976 Z M468.288,82.2 L481.536,82.2 L488.592,101.352 C488.928002,102.312005 489.383997,103.79999 489.96,105.816 L491.04,109.56 L491.328,109.56 L492.408,105.816 C492.984003,103.79999 493.439998,102.312005 493.776,101.352 L500.544,82.2 L513.792,82.2 L513.792,129 L502.56,129 L502.56,115.176 C502.56,113.399991 502.703999,111.108014 502.992,108.3 C503.280001,105.491986 503.591998,102.888012 503.928,100.488 L504.144,98.472 L503.856,98.472 L499.968,109.704 L494.208,125.184 L487.584,125.184 L481.824,109.704 L478.08,98.472 L477.792,98.472 L478.008,100.488 C478.344002,102.888012 478.655999,105.491986 478.944,108.3 C479.232001,111.108014 479.376,113.399991 479.376,115.176 L479.376,129 L468.288,129 L468.288,82.2 Z M530.352,127.596 C527.615986,126.083992 525.420008,123.900014 523.764,121.044 C522.107992,118.187986 521.28,114.840019 521.28,111 C521.28,107.159981 522.107992,103.812014 523.764,100.956 C525.420008,98.0999857 527.615986,95.9160076 530.352,94.404 C533.088014,92.8919924 536.015984,92.136 539.136,92.136 C542.256016,92.136 545.183986,92.8919924 547.92,94.404 C550.656014,95.9160076 552.851992,98.0999857 554.508,100.956 C556.164008,103.812014 556.992,107.159981 556.992,111 C556.992,114.840019 556.164008,118.187986 554.508,121.044 C552.851992,123.900014 550.656014,126.083992 547.92,127.596 C545.183986,129.108008 542.256016,129.864 539.136,129.864 C536.015984,129.864 533.088014,129.108008 530.352,127.596 Z M544.32,111 C544.32,105.04797 542.592017,102.072 539.136,102.072 C535.679983,102.072 533.952,105.04797 533.952,111 C533.952,116.95203 535.679983,119.928 539.136,119.928 C542.592017,119.928 544.32,116.95203 544.32,111 Z M568.8,127.56 C566.591989,126.023992 564.888006,123.840014 563.688,121.008 C562.487994,118.175986 561.888,114.840019 561.888,111 C561.888,107.207981 562.583993,103.884014 563.976,101.028 C565.368007,98.1719857 567.191989,95.9760077 569.448,94.44 C571.704011,92.9039923 574.079988,92.136 576.576,92.136 C578.400009,92.136 579.947994,92.435997 581.22,93.036 C582.492006,93.636003 583.727994,94.535994 584.928,95.736 L584.496,90.552 L584.496,78.888 L596.88,78.888 L596.88,129 L586.8,129 L585.936,125.688 L585.648,125.688 C584.399994,126.936006 582.960008,127.943996 581.328,128.712 C579.695992,129.480004 578.112008,129.864 576.576,129.864 C573.599985,129.864 571.008011,129.096008 568.8,127.56 Z M582.48,119.208 C583.200004,118.823998 583.871997,118.152005 584.496,117.192 L584.496,103.944 C583.199994,102.791994 581.56801,102.216 579.6,102.216 C578.159993,102.216 576.960005,102.911993 576,104.304 C575.039995,105.696007 574.56,107.879985 574.56,110.856 C574.56,113.976016 575.015995,116.243993 575.928,117.66 C576.840005,119.076007 578.159991,119.784 579.888,119.784 C580.896005,119.784 581.759996,119.592002 582.48,119.208 Z M635.832,114.744 L615.096,114.744 C615.672003,116.856011 616.739992,118.343996 618.3,119.208 C619.860008,120.072004 621.64799,120.504 623.664,120.504 C625.968012,120.504 628.415987,119.784007 631.008,118.344 L635.04,125.688 C633.167991,127.032007 631.044012,128.063996 628.668,128.784 C626.291988,129.504004 624.048011,129.864 621.936,129.864 C618.383982,129.864 615.204014,129.120007 612.396,127.632 C609.587986,126.143993 607.380008,123.972014 605.772,121.116 C604.163992,118.259986 603.36,114.888019 603.36,111 C603.36,107.255981 604.175992,103.956014 605.808,101.1 C607.440008,98.2439857 609.575987,96.0360078 612.216,94.476 C614.856013,92.9159922 617.663985,92.136 620.64,92.136 C625.728025,92.136 629.615987,93.7679837 632.304,97.032 C634.992013,100.296016 636.336,104.471975 636.336,109.56 C636.336,111.672011 636.168002,113.399993 635.832,114.744 Z M625.824,106.68 C625.824,105.143992 625.440004,103.896005 624.672,102.936 C623.903996,101.975995 622.656009,101.496 620.928,101.496 C619.583993,101.496 618.396005,101.915996 617.364,102.756 C616.331995,103.596004 615.576002,104.903991 615.096,106.68 L625.824,106.68 Z" id="High-Contrast-Mode" fill="#FFFF02"></path>
            <path d="M3.096,278.42 L6.876,278.42 L14.724,292.352 L17.208,297.32 L17.352,297.32 C17.3039998,296.551996 17.2560002,296.012002 17.208,295.7 C17.1839999,295.435999 17.1240005,294.632007 17.028,293.288 C16.9319995,291.943993 16.884,290.684006 16.884,289.508 L16.884,278.42 L20.376,278.42 L20.376,302 L16.596,302 L8.748,288.032 L6.264,283.1 L6.12,283.1 L6.264,284.9 C6.28800012,285.188001 6.34799952,285.967994 6.444,287.24 C6.54000048,288.512006 6.588,289.699994 6.588,290.804 L6.588,302 L3.096,302 L3.096,278.42 Z M29.196,301.316 C27.9239936,300.571996 26.9100038,299.504007 26.154,298.112 C25.3979962,296.719993 25.02,295.088009 25.02,293.216 C25.02,291.319991 25.3979962,289.676007 26.154,288.284 C26.9100038,286.891993 27.9179937,285.824004 29.178,285.08 C30.4380063,284.335996 31.8119926,283.964 33.3,283.964 C34.7880074,283.964 36.1619937,284.335996 37.422,285.08 C38.6820063,285.824004 39.6899962,286.891993 40.446,288.284 C41.2020038,289.676007 41.58,291.319991 41.58,293.216 C41.58,295.088009 41.2020038,296.719993 40.446,298.112 C39.6899962,299.504007 38.6760064,300.571996 37.404,301.316 C36.1319936,302.060004 34.7640073,302.432 33.3,302.432 C31.8359927,302.432 30.4680064,302.060004 29.196,301.316 Z M36.612,297.734 C37.4280041,296.593994 37.836,295.088009 37.836,293.216 C37.836,291.343991 37.4220041,289.832006 36.594,288.68 C35.7659959,287.527994 34.6680068,286.952 33.3,286.952 C31.9319932,286.952 30.8340041,287.527994 30.006,288.68 C29.1779959,289.832006 28.764,291.343991 28.764,293.216 C28.764,295.088009 29.1719959,296.593994 29.988,297.734 C30.8040041,298.874006 31.907993,299.444 33.3,299.444 C34.692007,299.444 35.7959959,298.874006 36.612,297.734 Z M43.56,284.396 L47.268,284.396 L50.292,293.9 L51.84,299.156 L51.984,299.156 L53.532,293.9 L56.556,284.396 L60.084,284.396 L54,302 L49.788,302 L43.56,284.396 Z M77.112,294.152 L65.484,294.152 C65.6520008,295.928009 66.2579948,297.277995 67.302,298.202 C68.3460052,299.126005 69.6119926,299.588 71.1,299.588 C72.5160071,299.588 73.919993,299.144004 75.312,298.256 L76.572,300.56 C74.6999906,301.808006 72.7200104,302.432 70.632,302.432 C69.023992,302.432 67.5720065,302.060004 66.276,301.316 C64.9799935,300.571996 63.9540038,299.504007 63.198,298.112 C62.4419962,296.719993 62.064,295.088009 62.064,293.216 C62.064,291.367991 62.4419962,289.742007 63.198,288.338 C63.9540038,286.933993 64.9439939,285.854004 66.168,285.098 C67.3920061,284.341996 68.699993,283.964 70.092,283.964 C72.3720114,283.964 74.1359938,284.713993 75.384,286.214 C76.6320062,287.714007 77.256,289.735987 77.256,292.28 C77.256,292.952003 77.2080005,293.575997 77.112,294.152 Z M74.088,291.632 C74.088,290.095992 73.7520034,288.908004 73.08,288.068 C72.4079966,287.227996 71.4360064,286.808 70.164,286.808 C69.0599945,286.808 68.0760043,287.215996 67.212,288.032 C66.3479957,288.848004 65.7960012,290.047992 65.556,291.632 L74.088,291.632 Z M81.36,284.396 L84.348,284.396 L84.636,286.844 L84.744,286.844 C85.6080043,285.955996 86.4779956,285.254003 87.354,284.738 C88.2300044,284.221997 89.171995,283.964 90.18,283.964 C92.6040121,283.964 94.2239959,285.043989 95.04,287.204 C96.0240049,286.147995 96.9659955,285.344003 97.866,284.792 C98.7660045,284.239997 99.7319948,283.964 100.764,283.964 C102.564009,283.964 103.913996,284.557994 104.814,285.746 C105.714005,286.934006 106.164,288.655989 106.164,290.912 L106.164,302 L102.528,302 L102.528,291.38 C102.528,289.867992 102.294002,288.776003 101.826,288.104 C101.357998,287.431997 100.608005,287.096 99.576,287.096 C98.375994,287.096 97.0440073,287.899992 95.58,289.508 L95.58,302 L91.944,302 L91.944,291.38 C91.944,289.867992 91.7100023,288.776003 91.242,288.104 C90.7739977,287.431997 90.0240052,287.096 88.992,287.096 C87.791994,287.096 86.4600073,287.899992 84.996,289.508 L84.996,302 L81.36,302 L81.36,284.396 Z M117.216,301.838 C116.375996,301.441998 115.572004,300.884004 114.804,300.164 L114.696,300.164 L114.372,302 L111.492,302 L111.492,276.476 L115.128,276.476 L115.128,283.244 L115.02,286.268 C115.836004,285.571997 116.699995,285.014002 117.612,284.594 C118.524005,284.173998 119.423996,283.964 120.312,283.964 C122.520011,283.964 124.229994,284.767992 125.442,286.376 C126.654006,287.984008 127.26,290.155986 127.26,292.892 C127.26,294.83601 126.912003,296.527993 126.216,297.968 C125.519997,299.408007 124.596006,300.511996 123.444,301.28 C122.291994,302.048004 121.044007,302.432 119.7,302.432 C118.883996,302.432 118.056004,302.234002 117.216,301.838 Z M122.256,297.698 C123.096004,296.557994 123.516,294.98001 123.516,292.964 C123.516,288.97998 122.124014,286.988 119.34,286.988 C118.019993,286.988 116.616007,287.707993 115.128,289.148 L115.128,297.788 C115.776003,298.340003 116.429997,298.747999 117.09,299.012 C117.750003,299.276001 118.379997,299.408 118.98,299.408 C120.324007,299.408 121.415996,298.838006 122.256,297.698 Z M145.44,294.152 L133.812,294.152 C133.980001,295.928009 134.585995,297.277995 135.63,298.202 C136.674005,299.126005 137.939993,299.588 139.428,299.588 C140.844007,299.588 142.247993,299.144004 143.64,298.256 L144.9,300.56 C143.027991,301.808006 141.04801,302.432 138.96,302.432 C137.351992,302.432 135.900006,302.060004 134.604,301.316 C133.307994,300.571996 132.282004,299.504007 131.526,298.112 C130.769996,296.719993 130.392,295.088009 130.392,293.216 C130.392,291.367991 130.769996,289.742007 131.526,288.338 C132.282004,286.933993 133.271994,285.854004 134.496,285.098 C135.720006,284.341996 137.027993,283.964 138.42,283.964 C140.700011,283.964 142.463994,284.713993 143.712,286.214 C144.960006,287.714007 145.584,289.735987 145.584,292.28 C145.584,292.952003 145.536,293.575997 145.44,294.152 Z M142.416,291.632 C142.416,290.095992 142.080003,288.908004 141.408,288.068 C140.735997,287.227996 139.764006,286.808 138.492,286.808 C137.387994,286.808 136.404004,287.215996 135.54,288.032 C134.675996,288.848004 134.124001,290.047992 133.884,291.632 L142.416,291.632 Z M149.688,284.396 L152.676,284.396 L152.964,287.564 L153.072,287.564 C153.696003,286.435994 154.445996,285.554003 155.322,284.918 C156.198004,284.281997 157.115995,283.964 158.076,283.964 C158.868004,283.964 159.515997,284.083999 160.02,284.324 L159.372,287.492 C158.723997,287.299999 158.136003,287.204 157.608,287.204 C156.815996,287.204 156.036004,287.509997 155.268,288.122 C154.499996,288.734003 153.852003,289.699993 153.324,291.02 L153.324,302 L149.688,302 L149.688,284.396 Z M168.768,299.012 L173.952,299.012 L173.952,283.172 L169.74,283.172 L169.74,280.868 C171.78001,280.507998 173.483993,279.908004 174.852,279.068 L177.588,279.068 L177.588,299.012 L182.196,299.012 L182.196,302 L168.768,302 L168.768,299.012 Z M189.036,301.622 C187.859994,301.081997 186.942003,300.332005 186.282,299.372 C185.621997,298.411995 185.292,297.332006 185.292,296.132 C185.292,294.787993 185.687996,293.612005 186.48,292.604 C187.272004,291.595995 188.279994,290.768003 189.504,290.12 L189.504,289.976 C187.391989,288.487993 186.336,286.71201 186.336,284.648 C186.336,283.447994 186.629997,282.398005 187.218,281.498 C187.806003,280.597996 188.609995,279.896003 189.63,279.392 C190.650005,278.887997 191.795994,278.636 193.068,278.636 C195.08401,278.636 196.691994,279.205994 197.892,280.346 C199.092006,281.486006 199.692,282.967991 199.692,284.792 C199.692,285.872005 199.386003,286.885995 198.774,287.834 C198.161997,288.782005 197.436004,289.555997 196.596,290.156 L196.596,290.3 C197.820006,291.020004 198.785996,291.841995 199.494,292.766 C200.202004,293.690005 200.556,294.847993 200.556,296.24 C200.556,297.392006 200.238003,298.441995 199.602,299.39 C198.965997,300.338005 198.072006,301.081997 196.92,301.622 C195.767994,302.162003 194.448007,302.432 192.96,302.432 C191.519993,302.432 190.212006,302.162003 189.036,301.622 Z M196.632,285.008 C196.632,283.903994 196.308003,283.004003 195.66,282.308 C195.011997,281.611997 194.124006,281.264 192.996,281.264 C192.011995,281.264 191.202003,281.569997 190.566,282.182 C189.929997,282.794003 189.612,283.615995 189.612,284.648 C189.612,285.776006 190.025996,286.663997 190.854,287.312 C191.682004,287.960003 192.899992,288.607997 194.508,289.256 C195.924007,287.911993 196.632,286.496007 196.632,285.008 Z M196.002,298.796 C196.758004,298.123997 197.136,297.236006 197.136,296.132 C197.136,295.291996 196.890002,294.584003 196.398,294.008 C195.905998,293.431997 195.294004,292.958002 194.562,292.586 C193.829996,292.213998 192.744007,291.740003 191.304,291.164 C190.463996,291.764003 189.792003,292.453996 189.288,293.234 C188.783997,294.014004 188.532,294.859995 188.532,295.772 C188.532,296.948006 188.957996,297.913996 189.81,298.67 C190.662004,299.426004 191.735994,299.804 193.032,299.804 C194.256006,299.804 195.245996,299.468003 196.002,298.796 Z M209.016,298.328 C209.520003,299.024003 209.772,299.983994 209.772,301.208 C209.772,302.864008 209.316005,304.315994 208.404,305.564 C207.491995,306.812006 206.208008,307.747997 204.552,308.372 L203.724,306.32 C204.828006,305.863998 205.679997,305.258004 206.28,304.502 C206.880003,303.745996 207.192,302.888005 207.216,301.928 C207.144,301.952 207.024001,301.964 206.856,301.964 C206.183997,301.964 205.608002,301.754002 205.128,301.334 C204.647998,300.913998 204.408,300.344004 204.408,299.624 C204.408,298.927997 204.653998,298.364002 205.146,297.932 C205.638002,297.499998 206.231997,297.284 206.928,297.284 C207.816004,297.284 208.511997,297.631997 209.016,298.328 Z M220.14,299.876 C222.756013,297.307987 224.765993,295.262008 226.17,293.738 C227.574007,292.213992 228.677996,290.786007 229.482,289.454 C230.286004,288.121993 230.688,286.880006 230.688,285.728 C230.688,284.431994 230.340003,283.412004 229.644,282.668 C228.947997,281.923996 227.952006,281.552 226.656,281.552 C225.095992,281.552 223.548008,282.427991 222.012,284.18 L219.96,282.164 C221.040005,280.987994 222.137994,280.106003 223.254,279.518 C224.370006,278.929997 225.659993,278.636 227.124,278.636 C229.284011,278.636 231.005994,279.265994 232.29,280.526 C233.574006,281.786006 234.216,283.45999 234.216,285.548 C234.216,286.868007 233.850004,288.223993 233.118,289.616 C232.385996,291.008007 231.426006,292.405993 230.238,293.81 C229.049994,295.214007 227.44801,296.983989 225.432,299.12 C227.064008,298.975999 228.347995,298.904 229.284,298.904 L235.332,298.904 L235.332,302 L220.14,302 L220.14,299.876 Z M240.48,299.3 C239.135993,297.21199 238.464,294.260019 238.464,290.444 C238.464,286.627981 239.135993,283.70601 240.48,281.678 C241.824007,279.64999 243.683988,278.636 246.06,278.636 C248.436012,278.636 250.295993,279.65599 251.64,281.696 C252.984007,283.73601 253.656,286.651981 253.656,290.444 C253.656,294.260019 252.984007,297.21199 251.64,299.3 C250.295993,301.38801 248.436012,302.432 246.06,302.432 C243.683988,302.432 241.824007,301.38801 240.48,299.3 Z M249.066,297.356 C249.798004,295.891993 250.164,293.588016 250.164,290.444 C250.164,284.49197 248.796014,281.516 246.06,281.516 C243.323986,281.516 241.956,284.49197 241.956,290.444 C241.956,293.588016 242.321996,295.891993 243.054,297.356 C243.786004,298.820007 244.787994,299.552 246.06,299.552 C247.332006,299.552 248.333996,298.820007 249.066,297.356 Z M256.788,299.012 L261.972,299.012 L261.972,283.172 L257.76,283.172 L257.76,280.868 C259.80001,280.507998 261.503993,279.908004 262.872,279.068 L265.608,279.068 L265.608,299.012 L270.216,299.012 L270.216,302 L256.788,302 L256.788,299.012 Z M279.756,291.218 C280.716005,288.253985 282.299989,285.236015 284.508,282.164 L273.42,282.164 L273.42,279.068 L288.54,279.068 L288.54,281.3 C286.763991,283.508011 285.414005,285.61399 284.49,287.618 C283.565995,289.62201 282.912002,291.709989 282.528,293.882 C282.143998,296.054011 281.880001,298.759984 281.736,302 L278.028,302 C278.220001,297.775979 278.795995,294.182015 279.756,291.218 Z" id="November-18,-2017" fill="#00FFFF"></path>
        </g>
    </g>
</svg>