<svg width="637" height="309" xmlns="http://www.w3.org/2000/svg"><g fill-rule="nonzero" fill="none"><path d="M.72 6.2h12.672l2.592 20.448 1.584 14.688h.288l2.592-14.688L24.912 6.2H35.28l4.464 20.448 2.16 12.168.432 2.52h.288l1.584-14.688L46.8 6.2h11.808L50.832 53H35.136l-3.6-18.576c-.624-3.216-1.2-6.864-1.728-10.944h-.288l-.288 2.016c-.624 4.272-1.104 7.248-1.44 8.928L24.336 53H8.928L.72 6.2zm69.984 45.396c-2.736-1.512-4.932-3.696-6.588-6.552C62.46 42.188 61.632 38.84 61.632 35c0-3.84.828-7.188 2.484-10.044 1.656-2.856 3.852-5.04 6.588-6.552a17.879 17.879 0 0 1 8.784-2.268c3.12 0 6.048.756 8.784 2.268 2.736 1.512 4.932 3.696 6.588 6.552 1.656 2.856 2.484 6.204 2.484 10.044 0 3.84-.828 7.188-2.484 10.044-1.656 2.856-3.852 5.04-6.588 6.552a17.879 17.879 0 0 1-8.784 2.268c-3.12 0-6.048-.756-8.784-2.268zM84.672 35c0-5.952-1.728-8.928-5.184-8.928-3.456 0-5.184 2.976-5.184 8.928 0 5.952 1.728 8.928 5.184 8.928 3.456 0 5.184-2.976 5.184-8.928zm19.152-18h10.08l.864 6.192h.288c1.248-2.352 2.796-4.116 4.644-5.292 1.848-1.176 3.708-1.764 5.58-1.764 1.872 0 3.36.24 4.464.72l-2.016 10.656c-1.728-.384-3.072-.576-4.032-.576-1.44 0-2.844.492-4.212 1.476-1.368.984-2.46 2.508-3.276 4.572V53h-12.384V17zM133.92 2.888h12.096v26.64h.288L156.24 17h13.392l-12.816 14.976L170.352 53H156.96l-7.2-12.816-3.744 4.176V53H133.92V2.888zM174.816 17H187.2v36h-12.384V17zm1.44-6.192c-1.248-1.152-1.872-2.64-1.872-4.464 0-1.824.624-3.312 1.872-4.464 1.248-1.152 2.832-1.728 4.752-1.728s3.504.576 4.752 1.728c1.248 1.152 1.872 2.64 1.872 4.464 0 1.824-.624 3.312-1.872 4.464-1.248 1.152-2.832 1.728-4.752 1.728s-3.504-.576-4.752-1.728zM195.552 17h10.08l.864 4.32h.288c1.68-1.584 3.432-2.844 5.256-3.78 1.824-.936 3.864-1.404 6.12-1.404 3.84 0 6.672 1.284 8.496 3.852 1.824 2.568 2.736 6.18 2.736 10.836V53h-12.384V32.408c0-2.208-.276-3.72-.828-4.536-.552-.816-1.476-1.224-2.772-1.224-1.056 0-1.968.204-2.736.612-.768.408-1.68 1.116-2.736 2.124V53h-12.384V17zm44.1 48.672c-2.808-1.44-4.212-3.696-4.212-6.768 0-2.832 1.68-5.136 5.04-6.912v-.288c-2.208-1.536-3.312-3.6-3.312-6.192 0-1.2.36-2.412 1.08-3.636.72-1.224 1.704-2.268 2.952-3.132v-.288c-1.392-.96-2.556-2.244-3.492-3.852-.936-1.608-1.404-3.396-1.404-5.364 0-2.832.708-5.232 2.124-7.2 1.416-1.968 3.3-3.444 5.652-4.428 2.352-.984 4.896-1.476 7.632-1.476 2.112 0 4.032.288 5.76.864h13.392v8.928h-5.184c.384 1.152.576 2.4.576 3.744 0 4.032-1.344 7.032-4.032 9-2.688 1.968-6.192 2.952-10.512 2.952-1.2 0-2.544-.168-4.032-.504-.336.336-.564.636-.684.9-.12.264-.18.66-.18 1.188 0 .768.384 1.32 1.152 1.656.768.336 2.064.504 3.888.504h5.4c4.656 0 8.184.756 10.584 2.268 2.4 1.512 3.6 3.876 3.6 7.092 0 2.592-.852 4.872-2.556 6.84-1.704 1.968-4.128 3.504-7.272 4.608-3.144 1.104-6.828 1.656-11.052 1.656-4.464 0-8.1-.72-10.908-2.16zm14.904-32.652c.696-.84 1.044-2.1 1.044-3.78 0-1.584-.348-2.796-1.044-3.636-.696-.84-1.644-1.26-2.844-1.26s-2.148.42-2.844 1.26c-.696.84-1.044 2.052-1.044 3.636 0 1.68.348 2.94 1.044 3.78.696.84 1.644 1.26 2.844 1.26s2.148-.42 2.844-1.26zm3.096 26.28c1.32-.6 1.98-1.404 1.98-2.412 0-.864-.372-1.44-1.116-1.728-.744-.288-1.98-.432-3.708-.432H252c-2.448 0-4.176-.144-5.184-.432-.864.864-1.296 1.728-1.296 2.592 0 1.104.636 1.932 1.908 2.484 1.272.552 2.988.828 5.148.828 2.064 0 3.756-.3 5.076-.9zm31.068-41.508h7.344l4.68 19.152 1.44 7.2.504 2.808h.288c.912-4.272 1.68-7.608 2.304-10.008l4.968-19.152h6.768l5.04 19.152 1.8 7.416c.096.576.288 1.44.576 2.592h.288c.528-2.544.864-4.224 1.008-5.04l1.008-4.968 4.608-19.152h6.84L329.04 53h-8.712l-4.536-17.496a154.75 154.75 0 0 1-1.584-7.128l-.648-3.096h-.288c-.912 4.656-1.656 8.088-2.232 10.296L306.648 53h-8.424l-9.504-35.208zm56.736 0h7.272V53h-7.272V17.792zm.468-7.848c-.84-.816-1.26-1.872-1.26-3.168 0-1.248.42-2.28 1.26-3.096.84-.816 1.908-1.224 3.204-1.224 1.296 0 2.364.408 3.204 1.224.84.816 1.26 1.848 1.26 3.096 0 1.296-.42 2.352-1.26 3.168-.84.816-1.908 1.224-3.204 1.224-1.296 0-2.364-.408-3.204-1.224zm19.044 31.608V23.624h-5.112v-5.472l5.472-.36.864-9.72h6.048v9.72h9.216v5.832h-9.216v17.928c0 2.16.408 3.78 1.224 4.86.816 1.08 2.136 1.62 3.96 1.62 1.104 0 2.376-.288 3.816-.864l1.296 5.4c-2.592.864-4.896 1.296-6.912 1.296-7.104 0-10.656-4.104-10.656-12.312zm24.12-39.6h7.272v13.536l-.288 6.984c1.824-1.728 3.636-3.084 5.436-4.068 1.8-.984 3.804-1.476 6.012-1.476 7.2 0 10.8 4.632 10.8 13.896V53h-7.272V31.76c0-3.024-.468-5.208-1.404-6.552-.936-1.344-2.46-2.016-4.572-2.016-1.584 0-3 .372-4.248 1.116-1.248.744-2.736 1.98-4.464 3.708V53h-7.272V1.952z" fill="#FFFF02"/><path d="M4.612 165.49h4.284V193H4.612v-27.51zm11.13 6.972h3.486l.336 2.856h.126c1.092-1.064 2.177-1.89 3.255-2.478 1.078-.588 2.261-.882 3.549-.882 4.2 0 6.3 2.702 6.3 8.106V193h-4.242v-12.39c0-1.764-.273-3.038-.819-3.822-.546-.784-1.435-1.176-2.667-1.176-.924 0-1.75.217-2.478.651-.728.434-1.596 1.155-2.604 2.163V193h-4.242v-20.538zm31.626 21.042c-1.848 0-3.514-.427-4.998-1.281-1.484-.854-2.653-2.093-3.507-3.717-.854-1.624-1.281-3.542-1.281-5.754 0-2.212.462-4.13 1.386-5.754.924-1.624 2.156-2.87 3.696-3.738 1.54-.868 3.22-1.302 5.04-1.302 2.24 0 4.242.784 6.006 2.352l-2.1 2.772c-.616-.532-1.218-.938-1.806-1.218a4.34 4.34 0 0 0-1.89-.42c-1.764 0-3.199.672-4.305 2.016-1.106 1.344-1.659 3.108-1.659 5.292 0 2.184.539 3.941 1.617 5.271 1.078 1.33 2.485 1.995 4.221 1.995 1.54 0 3.038-.63 4.494-1.89l1.764 2.814a9.61 9.61 0 0 1-3.129 1.911 10.07 10.07 0 0 1-3.549.651zm15.162 0c-1.484 0-2.562-.448-3.234-1.344-.672-.896-1.008-2.212-1.008-3.948v-24.99h4.242v25.242c0 .532.098.924.294 1.176.196.252.434.378.714.378.252 0 .504-.028.756-.084l.546 3.192c-.644.252-1.414.378-2.31.378zm12.894 0c-4.2 0-6.3-2.702-6.3-8.106v-12.936h4.242v12.39c0 1.764.273 3.038.819 3.822.546.784 1.435 1.176 2.667 1.176.952 0 1.792-.238 2.52-.714s1.54-1.274 2.436-2.394v-14.28h4.242V193h-3.486l-.336-3.108h-.126c-1.008 1.176-2.037 2.072-3.087 2.688-1.05.616-2.247.924-3.591.924zm22.68 0c-1.372 0-2.744-.266-4.116-.798-1.372-.532-2.576-1.218-3.612-2.058l2.016-2.73c.98.756 1.932 1.337 2.856 1.743a7.33 7.33 0 0 0 2.982.609c1.176 0 2.072-.259 2.688-.777.616-.518.924-1.183.924-1.995 0-.84-.378-1.505-1.134-1.995-.756-.49-1.89-1.015-3.402-1.575-1.82-.672-3.262-1.449-4.326-2.331-1.064-.882-1.596-2.093-1.596-3.633 0-1.764.658-3.206 1.974-4.326 1.316-1.12 3.094-1.68 5.334-1.68 2.408 0 4.62.798 6.636 2.394l-1.974 2.646c-.784-.588-1.54-1.036-2.268-1.344a5.868 5.868 0 0 0-2.31-.462c-1.092 0-1.925.238-2.499.714-.574.476-.861 1.092-.861 1.848 0 .56.196 1.029.588 1.407.392.378.847.679 1.365.903.518.224 1.337.546 2.457.966 1.232.448 2.261.903 3.087 1.365a6.532 6.532 0 0 1 2.1 1.869c.574.784.861 1.778.861 2.982 0 1.176-.301 2.233-.903 3.171-.602.938-1.491 1.687-2.667 2.247-1.176.56-2.576.84-4.2.84zm12.306-21.042h4.242V193h-4.242v-20.538zm2.142-3.864c-.756 0-1.379-.238-1.869-.714s-.735-1.092-.735-1.848c0-.728.245-1.33.735-1.806s1.113-.714 1.869-.714 1.379.238 1.869.714.735 1.078.735 1.806c0 .756-.245 1.372-.735 1.848s-1.113.714-1.869.714zm5.838 3.864h4.326l3.528 11.088 1.806 6.132h.168l1.806-6.132 3.528-11.088h4.116L130.57 193h-4.914l-7.266-20.538zm39.312 9.198c0 .784-.056 1.512-.168 2.184h-13.566c.196 2.072.903 3.647 2.121 4.725 1.218 1.078 2.695 1.617 4.431 1.617 1.652 0 3.29-.518 4.914-1.554l1.47 2.688c-2.184 1.456-4.494 2.184-6.93 2.184-1.876 0-3.57-.434-5.082-1.302-1.512-.868-2.709-2.114-3.591-3.738-.882-1.624-1.323-3.528-1.323-5.712 0-2.156.441-4.053 1.323-5.691.882-1.638 2.037-2.898 3.465-3.78 1.428-.882 2.954-1.323 4.578-1.323 2.66 0 4.718.875 6.174 2.625 1.456 1.75 2.184 4.109 2.184 7.077zm-3.696-.756c0-1.792-.392-3.178-1.176-4.158-.784-.98-1.918-1.47-3.402-1.47-1.288 0-2.436.476-3.444 1.428s-1.652 2.352-1.932 4.2h9.954zm17.262-15.414h7.14c4.256 0 7.525 1.162 9.807 3.486 2.282 2.324 3.423 5.712 3.423 10.164s-1.134 7.875-3.402 10.269c-2.268 2.394-5.474 3.591-9.618 3.591h-7.35v-27.51zm6.846 24.024c2.968 0 5.229-.875 6.783-2.625 1.554-1.75 2.331-4.333 2.331-7.749 0-3.388-.77-5.929-2.31-7.623s-3.808-2.541-6.804-2.541h-2.562v20.538h2.562zm35.154-7.854c0 .784-.056 1.512-.168 2.184h-13.566c.196 2.072.903 3.647 2.121 4.725 1.218 1.078 2.695 1.617 4.431 1.617 1.652 0 3.29-.518 4.914-1.554l1.47 2.688c-2.184 1.456-4.494 2.184-6.93 2.184-1.876 0-3.57-.434-5.082-1.302-1.512-.868-2.709-2.114-3.591-3.738-.882-1.624-1.323-3.528-1.323-5.712 0-2.156.441-4.053 1.323-5.691.882-1.638 2.037-2.898 3.465-3.78 1.428-.882 2.954-1.323 4.578-1.323 2.66 0 4.718.875 6.174 2.625 1.456 1.75 2.184 4.109 2.184 7.077zm-3.696-.756c0-1.792-.392-3.178-1.176-4.158-.784-.98-1.918-1.47-3.402-1.47-1.288 0-2.436.476-3.444 1.428s-1.652 2.352-1.932 4.2h9.954zm14.07 12.6c-1.372 0-2.744-.266-4.116-.798-1.372-.532-2.576-1.218-3.612-2.058l2.016-2.73c.98.756 1.932 1.337 2.856 1.743a7.33 7.33 0 0 0 2.982.609c1.176 0 2.072-.259 2.688-.777.616-.518.924-1.183.924-1.995 0-.84-.378-1.505-1.134-1.995-.756-.49-1.89-1.015-3.402-1.575-1.82-.672-3.262-1.449-4.326-2.331-1.064-.882-1.596-2.093-1.596-3.633 0-1.764.658-3.206 1.974-4.326 1.316-1.12 3.094-1.68 5.334-1.68 2.408 0 4.62.798 6.636 2.394l-1.974 2.646c-.784-.588-1.54-1.036-2.268-1.344a5.868 5.868 0 0 0-2.31-.462c-1.092 0-1.925.238-2.499.714-.574.476-.861 1.092-.861 1.848 0 .56.196 1.029.588 1.407.392.378.847.679 1.365.903.518.224 1.337.546 2.457.966 1.232.448 2.261.903 3.087 1.365a6.532 6.532 0 0 1 2.1 1.869c.574.784.861 1.778.861 2.982 0 1.176-.301 2.233-.903 3.171-.602.938-1.491 1.687-2.667 2.247-1.176.56-2.576.84-4.2.84zm12.306-21.042h4.242V193h-4.242v-20.538zm2.142-3.864c-.756 0-1.379-.238-1.869-.714s-.735-1.092-.735-1.848c0-.728.245-1.33.735-1.806s1.113-.714 1.869-.714 1.379.238 1.869.714.735 1.078.735 1.806c0 .756-.245 1.372-.735 1.848s-1.113.714-1.869.714zm15.624 33.642c-2.548 0-4.606-.469-6.174-1.407-1.568-.938-2.352-2.275-2.352-4.011 0-.868.259-1.687.777-2.457.518-.77 1.253-1.449 2.205-2.037v-.168c-1.232-.784-1.848-1.918-1.848-3.402 0-.756.217-1.47.651-2.142a5.968 5.968 0 0 1 1.617-1.68v-.168c-.756-.588-1.393-1.358-1.911-2.31s-.777-2.002-.777-3.15c0-1.484.357-2.786 1.071-3.906a6.947 6.947 0 0 1 2.898-2.562c1.218-.588 2.541-.882 3.969-.882a8.66 8.66 0 0 1 2.982.504h7.266v3.192h-3.948c.42.448.756 1.001 1.008 1.659a5.88 5.88 0 0 1 .378 2.121c0 2.184-.728 3.906-2.184 5.166-1.456 1.26-3.29 1.89-5.502 1.89a6.926 6.926 0 0 1-2.898-.63 4.71 4.71 0 0 0-.84.987c-.196.322-.294.721-.294 1.197 0 .644.266 1.141.798 1.491.532.35 1.414.525 2.646.525h3.822c2.464 0 4.305.406 5.523 1.218 1.218.812 1.827 2.072 1.827 3.78 0 1.316-.441 2.52-1.323 3.612-.882 1.092-2.135 1.96-3.759 2.604-1.624.644-3.5.966-5.628.966zm.126-18.48c1.12 0 2.051-.406 2.793-1.218.742-.812 1.113-1.89 1.113-3.234s-.371-2.408-1.113-3.192c-.742-.784-1.673-1.176-2.793-1.176s-2.051.392-2.793 1.176c-.742.784-1.113 1.848-1.113 3.192s.371 2.422 1.113 3.234c.742.812 1.673 1.218 2.793 1.218zm.504 15.666c1.148 0 2.177-.168 3.087-.504.91-.336 1.617-.791 2.121-1.365s.756-1.183.756-1.827c0-.84-.315-1.428-.945-1.764-.63-.336-1.589-.504-2.877-.504h-3.15c-1.036 0-1.946-.098-2.73-.294-1.204.896-1.806 1.904-1.806 3.024 0 1.008.49 1.799 1.47 2.373.98.574 2.338.861 4.074.861zm13.86-26.964h3.486l.336 2.856h.126c1.092-1.064 2.177-1.89 3.255-2.478 1.078-.588 2.261-.882 3.549-.882 4.2 0 6.3 2.702 6.3 8.106V193h-4.242v-12.39c0-1.764-.273-3.038-.819-3.822-.546-.784-1.435-1.176-2.667-1.176-.924 0-1.75.217-2.478.651-.728.434-1.596 1.155-2.604 2.163V193h-4.242v-20.538zm30.072 18.06c3.052-2.996 5.397-5.383 7.035-7.161 1.638-1.778 2.926-3.444 3.864-4.998.938-1.554 1.407-3.003 1.407-4.347 0-1.512-.406-2.702-1.218-3.57-.812-.868-1.974-1.302-3.486-1.302-1.82 0-3.626 1.022-5.418 3.066l-2.394-2.352c1.26-1.372 2.541-2.401 3.843-3.087 1.302-.686 2.807-1.029 4.515-1.029 2.52 0 4.529.735 6.027 2.205 1.498 1.47 2.247 3.423 2.247 5.859 0 1.54-.427 3.122-1.281 4.746-.854 1.624-1.974 3.255-3.36 4.893s-3.255 3.703-5.607 6.195c1.904-.168 3.402-.252 4.494-.252H316V193h-17.724v-2.478zm39.698-4.652h-3.486v7.098h-3.99v-7.098h-11.886v-2.856l10.962-16.8h4.914v16.338h3.486v3.318zm-7.562-3.476v-6.804c0-1.148.07-2.94.21-5.376h-.168c-.112.196-.574 1.05-1.386 2.562a7.09 7.09 0 0 0-.357.609c-.126.238-.273.511-.441.819l-5.46 8.19h7.602zm25.992 18.04c-1.82-2.968-3.199-6.006-4.137-9.114-.938-3.108-1.407-6.44-1.407-9.996s.469-6.888 1.407-9.996c.938-3.108 2.317-6.146 4.137-9.114l2.646 1.176a32.176 32.176 0 0 0-3.528 8.547 37.741 37.741 0 0 0-1.176 9.387c0 3.192.392 6.321 1.176 9.387a32.176 32.176 0 0 0 3.528 8.547l-2.646 1.176zm9.114-15.792h-3.276v-2.856h3.612l.714-5.754h-3.486v-2.856h3.822l.966-7.476h2.604l-.924 7.476h5.208l.966-7.476h2.604l-.924 7.476h3.36v2.856h-3.696l-.714 5.754h3.57v2.856h-3.906L375.01 193h-2.646l1.008-8.358h-5.208L367.156 193h-2.646l1.008-8.358zm8.19-2.856l.714-5.754h-5.208l-.714 5.754h5.208zm11.928-16.296h4.284V193h-4.284v-27.51zm11.508 0h7.14c4.256 0 7.525 1.162 9.807 3.486 2.282 2.324 3.423 5.712 3.423 10.164s-1.134 7.875-3.402 10.269c-2.268 2.394-5.474 3.591-9.618 3.591h-7.35v-27.51zm6.846 24.024c2.968 0 5.229-.875 6.783-2.625 1.554-1.75 2.331-4.333 2.331-7.749 0-3.388-.77-5.929-2.31-7.623s-3.808-2.541-6.804-2.541h-2.562v20.538h2.562zm17.262 1.008c3.052-2.996 5.397-5.383 7.035-7.161 1.638-1.778 2.926-3.444 3.864-4.998.938-1.554 1.407-3.003 1.407-4.347 0-1.512-.406-2.702-1.218-3.57-.812-.868-1.974-1.302-3.486-1.302-1.82 0-3.626 1.022-5.418 3.066l-2.394-2.352c1.26-1.372 2.541-2.401 3.843-3.087 1.302-.686 2.807-1.029 4.515-1.029 2.52 0 4.529.735 6.027 2.205 1.498 1.47 2.247 3.423 2.247 5.859 0 1.54-.427 3.122-1.281 4.746-.854 1.624-1.974 3.255-3.36 4.893s-3.255 3.703-5.607 6.195c1.904-.168 3.402-.252 4.494-.252h7.056V193h-17.724v-2.478zm39.732-4.62h-3.486V193h-3.99v-7.098h-11.886v-2.856l10.962-16.8h4.914v16.338h3.486v3.318zm-7.476-3.318v-6.804c0-1.148.07-2.94.21-5.376h-.168c-.112.196-.574 1.05-1.386 2.562a7.09 7.09 0 0 0-.357.609c-.126.238-.273.511-.441.819l-5.46 8.19h7.602zm10.332 16.674a32.176 32.176 0 0 0 3.528-8.547 37.741 37.741 0 0 0 1.176-9.387c0-3.192-.392-6.321-1.176-9.387a32.176 32.176 0 0 0-3.528-8.547l2.646-1.176c1.82 2.968 3.199 6.006 4.137 9.114.938 3.108 1.407 6.44 1.407 9.996s-.469 6.888-1.407 9.996c-.938 3.108-2.317 6.146-4.137 9.114l-2.646-1.176z" fill="#736FE6"/><path d="M5.184 82.2h12.384v17.424h13.968V82.2H43.92V129H31.536v-18.576H17.568V129H5.184V82.2zM53.28 93h12.384v36H53.28V93zm1.44-6.192c-1.248-1.152-1.872-2.64-1.872-4.464 0-1.824.624-3.312 1.872-4.464 1.248-1.152 2.832-1.728 4.752-1.728s3.504.576 4.752 1.728c1.248 1.152 1.872 2.64 1.872 4.464 0 1.824-.624 3.312-1.872 4.464-1.248 1.152-2.832 1.728-4.752 1.728s-3.504-.576-4.752-1.728zm21.492 54.864c-2.808-1.44-4.212-3.696-4.212-6.768 0-2.832 1.68-5.136 5.04-6.912v-.288c-2.208-1.536-3.312-3.6-3.312-6.192 0-1.2.36-2.412 1.08-3.636.72-1.224 1.704-2.268 2.952-3.132v-.288c-1.392-.96-2.556-2.244-3.492-3.852-.936-1.608-1.404-3.396-1.404-5.364 0-2.832.708-5.232 2.124-7.2 1.416-1.968 3.3-3.444 5.652-4.428 2.352-.984 4.896-1.476 7.632-1.476 2.112 0 4.032.288 5.76.864h13.392v8.928h-5.184c.384 1.152.576 2.4.576 3.744 0 4.032-1.344 7.032-4.032 9-2.688 1.968-6.192 2.952-10.512 2.952-1.2 0-2.544-.168-4.032-.504-.336.336-.564.636-.684.9-.12.264-.18.66-.18 1.188 0 .768.384 1.32 1.152 1.656.768.336 2.064.504 3.888.504h5.4c4.656 0 8.184.756 10.584 2.268 2.4 1.512 3.6 3.876 3.6 7.092 0 2.592-.852 4.872-2.556 6.84-1.704 1.968-4.128 3.504-7.272 4.608-3.144 1.104-6.828 1.656-11.052 1.656-4.464 0-8.1-.72-10.908-2.16zm14.904-32.652c.696-.84 1.044-2.1 1.044-3.78 0-1.584-.348-2.796-1.044-3.636-.696-.84-1.644-1.26-2.844-1.26s-2.148.42-2.844 1.26c-.696.84-1.044 2.052-1.044 3.636 0 1.68.348 2.94 1.044 3.78.696.84 1.644 1.26 2.844 1.26s2.148-.42 2.844-1.26zm3.096 26.28c1.32-.6 1.98-1.404 1.98-2.412 0-.864-.372-1.44-1.116-1.728-.744-.288-1.98-.432-3.708-.432H88.56c-2.448 0-4.176-.144-5.184-.432-.864.864-1.296 1.728-1.296 2.592 0 1.104.636 1.932 1.908 2.484 1.272.552 2.988.828 5.148.828 2.064 0 3.756-.3 5.076-.9zm19.116-56.412h12.384v11.664l-.576 6.192a23.146 23.146 0 0 1 4.896-3.312c1.728-.864 3.696-1.296 5.904-1.296 3.84 0 6.672 1.284 8.496 3.852 1.824 2.568 2.736 6.18 2.736 10.836V129h-12.384v-20.592c0-2.208-.276-3.72-.828-4.536-.552-.816-1.476-1.224-2.772-1.224-1.056 0-1.968.204-2.736.612-.768.408-1.68 1.116-2.736 2.124V129h-12.384V78.888zm66.42 48.276c-3.384-1.8-6.084-4.5-8.1-8.1-2.016-3.6-3.024-7.968-3.024-13.104 0-5.04 1.044-9.42 3.132-13.14 2.088-3.72 4.848-6.564 8.28-8.532 3.432-1.968 7.164-2.952 11.196-2.952 2.88 0 5.568.576 8.064 1.728 2.496 1.152 4.656 2.64 6.48 4.464l-6.48 7.92c-1.296-1.152-2.544-2.016-3.744-2.592-1.2-.576-2.544-.864-4.032-.864-1.824 0-3.516.552-5.076 1.656-1.56 1.104-2.808 2.676-3.744 4.716-.936 2.04-1.404 4.428-1.404 7.164 0 4.32.912 7.68 2.736 10.08 1.824 2.4 4.272 3.6 7.344 3.6 3.168 0 6-1.344 8.496-4.032l6.48 7.776c-1.968 2.304-4.26 4.032-6.876 5.184-2.616 1.152-5.46 1.728-8.532 1.728-4.08 0-7.812-.9-11.196-2.7zm39.276.432c-2.736-1.512-4.932-3.696-6.588-6.552-1.656-2.856-2.484-6.204-2.484-10.044 0-3.84.828-7.188 2.484-10.044 1.656-2.856 3.852-5.04 6.588-6.552a17.879 17.879 0 0 1 8.784-2.268c3.12 0 6.048.756 8.784 2.268 2.736 1.512 4.932 3.696 6.588 6.552 1.656 2.856 2.484 6.204 2.484 10.044 0 3.84-.828 7.188-2.484 10.044-1.656 2.856-3.852 5.04-6.588 6.552a17.879 17.879 0 0 1-8.784 2.268c-3.12 0-6.048-.756-8.784-2.268zM232.992 111c0-5.952-1.728-8.928-5.184-8.928-3.456 0-5.184 2.976-5.184 8.928 0 5.952 1.728 8.928 5.184 8.928 3.456 0 5.184-2.976 5.184-8.928zm19.152-18h10.08l.864 4.32h.288c1.68-1.584 3.432-2.844 5.256-3.78 1.824-.936 3.864-1.404 6.12-1.404 3.84 0 6.672 1.284 8.496 3.852 1.824 2.568 2.736 6.18 2.736 10.836V129H273.6v-20.592c0-2.208-.276-3.72-.828-4.536-.552-.816-1.476-1.224-2.772-1.224-1.056 0-1.968.204-2.736.612-.768.408-1.68 1.116-2.736 2.124V129h-12.384V93zm46.728 32.976c-2.16-2.592-3.24-6.192-3.24-10.8v-12.528h-4.752v-9.216l5.472-.432 1.44-9.36h10.224V93h8.208v9.648h-8.208v12.312c0 1.872.396 3.216 1.188 4.032.792.816 1.836 1.224 3.132 1.224.96 0 2.016-.192 3.168-.576l1.872 8.928a28.508 28.508 0 0 1-8.496 1.296c-4.512 0-7.848-1.296-10.008-3.888zM322.848 93h10.08l.864 6.192h.288c1.248-2.352 2.796-4.116 4.644-5.292 1.848-1.176 3.708-1.764 5.58-1.764 1.872 0 3.36.24 4.464.72l-2.016 10.656c-1.728-.384-3.072-.576-4.032-.576-1.44 0-2.844.492-4.212 1.476-1.368.984-2.46 2.508-3.276 4.572V129h-12.384V93zm33.732 35.352c-1.656-1.008-2.916-2.352-3.78-4.032-.864-1.68-1.296-3.528-1.296-5.544 0-3.792 1.548-6.744 4.644-8.856s8.076-3.528 14.94-4.248c-.144-1.296-.624-2.244-1.44-2.844-.816-.6-2.016-.9-3.6-.9-1.248 0-2.592.24-4.032.72s-3.12 1.248-5.04 2.304l-4.32-8.064c5.28-3.168 10.56-4.752 15.84-4.752 9.984 0 14.976 5.616 14.976 16.848V129h-10.08l-.864-3.456h-.288c-3.216 2.88-6.528 4.32-9.936 4.32-2.16 0-4.068-.504-5.724-1.512zm12.384-8.604c.648-.408 1.356-1.02 2.124-1.836v-4.896c-5.184.768-7.776 2.352-7.776 4.752 0 .816.288 1.452.864 1.908.576.456 1.392.684 2.448.684.912 0 1.692-.204 2.34-.612zm26.352 8.712c-2.568-.936-4.788-2.148-6.66-3.636l5.472-7.632c3.264 2.4 6.192 3.6 8.784 3.6 1.296 0 2.22-.18 2.772-.54.552-.36.828-.9.828-1.62 0-.72-.384-1.296-1.152-1.728-.768-.432-2.088-1.008-3.96-1.728-.24-.096-.504-.204-.792-.324a30.49 30.49 0 0 0-1.008-.396c-6.048-2.4-9.072-5.952-9.072-10.656 0-3.504 1.308-6.324 3.924-8.46 2.616-2.136 6.06-3.204 10.332-3.204 2.688 0 5.088.432 7.2 1.296a27.274 27.274 0 0 1 6.048 3.456l-5.472 7.344c-2.784-2.016-5.232-3.024-7.344-3.024s-3.168.672-3.168 2.016c0 .72.384 1.284 1.152 1.692.768.408 2.064.948 3.888 1.62.384.096.96.288 1.728.576 2.688 1.008 4.896 2.328 6.624 3.96 1.728 1.632 2.592 3.912 2.592 6.84 0 3.504-1.344 6.372-4.032 8.604-2.688 2.232-6.48 3.348-11.376 3.348-2.304 0-4.74-.468-7.308-1.404zm33.588-2.484c-2.16-2.592-3.24-6.192-3.24-10.8v-12.528h-4.752v-9.216l5.472-.432 1.44-9.36h10.224V93h8.208v9.648h-8.208v12.312c0 1.872.396 3.216 1.188 4.032.792.816 1.836 1.224 3.132 1.224.96 0 2.016-.192 3.168-.576l1.872 8.928a28.508 28.508 0 0 1-8.496 1.296c-4.512 0-7.848-1.296-10.008-3.888zM468.288 82.2h13.248l7.056 19.152c.336.96.792 2.448 1.368 4.464l1.08 3.744h.288l1.08-3.744c.576-2.016 1.032-3.504 1.368-4.464l6.768-19.152h13.248V129H502.56v-13.824c0-1.776.144-4.068.432-6.876.288-2.808.6-5.412.936-7.812l.216-2.016h-.288l-3.888 11.232-5.76 15.48h-6.624l-5.76-15.48-3.744-11.232h-.288l.216 2.016c.336 2.4.648 5.004.936 7.812.288 2.808.432 5.1.432 6.876V129h-11.088V82.2zm62.064 45.396c-2.736-1.512-4.932-3.696-6.588-6.552-1.656-2.856-2.484-6.204-2.484-10.044 0-3.84.828-7.188 2.484-10.044 1.656-2.856 3.852-5.04 6.588-6.552a17.879 17.879 0 0 1 8.784-2.268c3.12 0 6.048.756 8.784 2.268 2.736 1.512 4.932 3.696 6.588 6.552 1.656 2.856 2.484 6.204 2.484 10.044 0 3.84-.828 7.188-2.484 10.044-1.656 2.856-3.852 5.04-6.588 6.552a17.879 17.879 0 0 1-8.784 2.268c-3.12 0-6.048-.756-8.784-2.268zM544.32 111c0-5.952-1.728-8.928-5.184-8.928-3.456 0-5.184 2.976-5.184 8.928 0 5.952 1.728 8.928 5.184 8.928 3.456 0 5.184-2.976 5.184-8.928zm24.48 16.56c-2.208-1.536-3.912-3.72-5.112-6.552-1.2-2.832-1.8-6.168-1.8-10.008 0-3.792.696-7.116 2.088-9.972 1.392-2.856 3.216-5.052 5.472-6.588 2.256-1.536 4.632-2.304 7.128-2.304 1.824 0 3.372.3 4.644.9 1.272.6 2.508 1.5 3.708 2.7l-.432-5.184V78.888h12.384V129H586.8l-.864-3.312h-.288a15.224 15.224 0 0 1-4.32 3.024c-1.632.768-3.216 1.152-4.752 1.152-2.976 0-5.568-.768-7.776-2.304zm13.68-8.352c.72-.384 1.392-1.056 2.016-2.016v-13.248c-1.296-1.152-2.928-1.728-4.896-1.728-1.44 0-2.64.696-3.6 2.088-.96 1.392-1.44 3.576-1.44 6.552 0 3.12.456 5.388 1.368 6.804.912 1.416 2.232 2.124 3.96 2.124 1.008 0 1.872-.192 2.592-.576zm53.352-4.464h-20.736c.576 2.112 1.644 3.6 3.204 4.464 1.56.864 3.348 1.296 5.364 1.296 2.304 0 4.752-.72 7.344-2.16l4.032 7.344c-1.872 1.344-3.996 2.376-6.372 3.096-2.376.72-4.62 1.08-6.732 1.08-3.552 0-6.732-.744-9.54-2.232-2.808-1.488-5.016-3.66-6.624-6.516-1.608-2.856-2.412-6.228-2.412-10.116 0-3.744.816-7.044 2.448-9.9 1.632-2.856 3.768-5.064 6.408-6.624 2.64-1.56 5.448-2.34 8.424-2.34 5.088 0 8.976 1.632 11.664 4.896 2.688 3.264 4.032 7.44 4.032 12.528 0 2.112-.168 3.84-.504 5.184zm-10.008-8.064c0-1.536-.384-2.784-1.152-3.744-.768-.96-2.016-1.44-3.744-1.44-1.344 0-2.532.42-3.564 1.26-1.032.84-1.788 2.148-2.268 3.924h10.728z" fill="#FFFF02"/><path d="M13.395 302.444c-2.072 0-3.903-.512-5.494-1.536-1.592-1.023-2.831-2.49-3.719-4.403-.888-1.911-1.332-4.15-1.332-6.715 0-2.565.444-4.785 1.332-6.66.888-1.875 2.127-3.311 3.718-4.31 1.592-1 3.423-1.499 5.495-1.499s3.903.5 5.495 1.498c1.59 1 2.83 2.436 3.718 4.311.888 1.875 1.332 4.095 1.332 6.66 0 2.565-.444 4.804-1.332 6.715-.888 1.912-2.127 3.38-3.718 4.404-1.592 1.023-3.423 1.535-5.495 1.535zm0-3.293c1.332 0 2.504-.382 3.515-1.147 1.011-.765 1.788-1.856 2.331-3.275.543-1.418.814-3.064.814-4.939 0-2.837-.604-5.075-1.813-6.716-1.209-1.64-2.824-2.46-4.847-2.46-2.023 0-3.638.82-4.847 2.46-1.209 1.64-1.813 3.88-1.813 6.716 0 1.875.271 3.521.814 4.94.543 1.418 1.32 2.51 2.331 3.274 1.011.765 2.183 1.147 3.515 1.147zm22.607 3.293c-1.628 0-3.096-.376-4.403-1.129-1.307-.752-2.337-1.843-3.09-3.274-.752-1.43-1.128-3.12-1.128-5.069 0-1.949.407-3.638 1.221-5.069.814-1.43 1.9-2.528 3.256-3.293 1.357-.765 2.837-1.147 4.44-1.147 1.973 0 3.737.69 5.291 2.072l-1.85 2.442c-.543-.469-1.073-.826-1.591-1.073a3.823 3.823 0 0 0-1.665-.37c-1.554 0-2.818.592-3.792 1.776-.975 1.184-1.462 2.738-1.462 4.662s.475 3.472 1.425 4.644c.95 1.171 2.189 1.757 3.718 1.757 1.357 0 2.676-.555 3.959-1.665l1.554 2.479a8.467 8.467 0 0 1-2.756 1.683c-1 .378-2.059.573-3.127.574zm15.688 0c-3.65 0-5.476-2.109-5.476-6.327v-9.213h-2.627v-2.812l2.812-.185.444-4.995h3.108v4.995h4.736v2.997h-4.736v9.213c0 1.11.21 1.942.629 2.498.42.555 1.098.832 2.035.832.567 0 1.221-.148 1.961-.444l.666 2.775c-1.332.444-2.516.666-3.552.666zm14.171 0a8.214 8.214 0 0 1-4.218-1.147c-1.307-.765-2.35-1.862-3.127-3.293-.777-1.43-1.165-3.108-1.165-5.032 0-1.949.388-3.638 1.166-5.069.777-1.43 1.812-2.528 3.107-3.293a8.183 8.183 0 0 1 4.237-1.147c1.53 0 2.941.382 4.236 1.147 1.296.765 2.331 1.862 3.109 3.293.777 1.43 1.165 3.12 1.165 5.069 0 1.924-.388 3.601-1.165 5.032-.778 1.43-1.82 2.528-3.127 3.293a8.214 8.214 0 0 1-4.218 1.147zm0-3.071c1.43 0 2.565-.586 3.404-1.757.839-1.172 1.258-2.72 1.258-4.644s-.425-3.478-1.276-4.662c-.852-1.184-1.98-1.776-3.386-1.776-1.406 0-2.534.592-3.386 1.776-.85 1.184-1.276 2.738-1.276 4.662s.42 3.472 1.258 4.644c.839 1.171 1.973 1.757 3.404 1.757zm21.386 3.071c-.839 0-1.69-.203-2.553-.61-.863-.408-1.69-.981-2.479-1.721h-.111L81.771 302h-2.96v-26.233h3.737v6.956l-.111 3.108a11.54 11.54 0 0 1 2.664-1.72c.937-.432 1.862-.648 2.775-.648 2.27 0 4.027.826 5.272 2.479 1.246 1.653 1.869 3.885 1.869 6.697 0 1.998-.358 3.737-1.073 5.217-.715 1.48-1.665 2.615-2.849 3.404-1.184.79-2.467 1.184-3.848 1.184zm-.74-3.108c1.381 0 2.504-.586 3.367-1.757.863-1.172 1.295-2.794 1.295-4.866 0-4.095-1.43-6.142-4.292-6.142-1.357 0-2.8.74-4.329 2.22v8.88c.666.567 1.338.987 2.016 1.258.679.271 1.326.407 1.943.407zm27.343-7.326c0 .69-.05 1.332-.148 1.924h-11.951c.173 1.825.795 3.213 1.868 4.162 1.074.95 2.375 1.425 3.904 1.425 1.455 0 2.898-.456 4.329-1.369l1.295 2.368c-1.924 1.283-3.959 1.924-6.105 1.924-1.653 0-3.145-.382-4.477-1.147-1.332-.765-2.386-1.862-3.163-3.293-.778-1.43-1.166-3.108-1.166-5.032 0-1.9.388-3.57 1.165-5.013.778-1.444 1.795-2.553 3.053-3.33 1.258-.778 2.602-1.166 4.033-1.166 2.343 0 4.156.77 5.439 2.313 1.283 1.541 1.924 3.62 1.924 6.234zm-3.256-.666c0-1.579-.345-2.8-1.036-3.663-.69-.863-1.69-1.295-2.997-1.295-1.135 0-2.146.42-3.034 1.258-.888.839-1.455 2.072-1.702 3.7h8.769zm7.474-7.437h3.071l.296 3.256h.111c.641-1.16 1.412-2.066 2.313-2.72.9-.653 1.843-.98 2.83-.98.814 0 1.48.123 1.998.37l-.666 3.256c-.666-.197-1.27-.296-1.813-.296-.814 0-1.616.314-2.405.943-.79.63-1.455 1.622-1.998 2.979V302h-3.737v-18.093zm19.61 15.022h5.328v-16.28h-4.329v-2.368c2.097-.37 3.848-.987 5.254-1.85h2.812v20.498h4.736V302h-13.801v-3.071zm17.131 0h5.328v-16.28h-4.329v-2.368c2.097-.37 3.848-.987 5.254-1.85h2.812v20.498h4.736V302h-13.801v-3.071zm20.498-1.776c.913 0 1.628.358 2.146 1.073s.777 1.702.777 2.96c0 1.702-.469 3.194-1.406 4.477-.937 1.283-2.257 2.245-3.959 2.886l-.851-2.109c1.135-.469 2.01-1.091 2.627-1.868.607-.75.945-1.681.962-2.646-.12.03-.246.042-.37.037-.69 0-1.283-.216-1.776-.648-.493-.431-.74-1.017-.74-1.757 0-.715.253-1.295.758-1.739.506-.444 1.117-.666 1.832-.666zm13.579 2.664c2.689-2.64 4.754-4.742 6.197-6.308 1.444-1.567 2.578-3.034 3.405-4.404.826-1.369 1.239-2.645 1.239-3.829 0-1.332-.358-2.38-1.073-3.145-.715-.765-1.739-1.147-3.071-1.147-1.603 0-3.194.9-4.773 2.701l-2.109-2.072c1.11-1.209 2.238-2.115 3.386-2.72 1.147-.604 2.472-.906 3.977-.906 2.22 0 3.99.647 5.31 1.942 1.32 1.296 1.979 3.016 1.979 5.162 0 1.357-.376 2.75-1.129 4.181-.752 1.43-1.738 2.867-2.96 4.31-1.22 1.444-2.867 3.263-4.939 5.458 1.677-.148 2.997-.222 3.959-.222h6.216V302h-15.614v-2.183zm26.64 2.627c-2.442 0-4.354-1.073-5.735-3.219-1.381-2.146-2.072-5.18-2.072-9.102 0-3.922.69-6.925 2.072-9.01 1.381-2.084 3.293-3.126 5.735-3.126s4.354 1.048 5.735 3.145c1.381 2.097 2.072 5.094 2.072 8.991 0 3.922-.69 6.956-2.072 9.102-1.381 2.146-3.293 3.219-5.735 3.219zm0-2.96c1.307 0 2.337-.752 3.09-2.257.752-1.505 1.128-3.873 1.128-7.104 0-6.117-1.406-9.176-4.218-9.176-2.812 0-4.218 3.059-4.218 9.176 0 3.231.376 5.6 1.129 7.104.752 1.505 1.782 2.257 3.089 2.257zm11.026-.555h5.328v-16.28h-4.329v-2.368c2.097-.37 3.848-.987 5.254-1.85h2.812v20.498h4.736V302h-13.801v-3.071zm24.864 3.515c-1.48 0-2.824-.277-4.033-.833-1.209-.555-2.152-1.325-2.83-2.312-.679-.987-1.018-2.097-1.018-3.33 0-1.381.407-2.59 1.221-3.626.814-1.036 1.85-1.887 3.108-2.553v-.148c-2.17-1.53-3.256-3.355-3.256-5.476 0-1.233.302-2.312.906-3.238.605-.925 1.431-1.646 2.48-2.164 1.048-.518 2.226-.777 3.533-.777 2.072 0 3.725.586 4.958 1.757 1.233 1.172 1.85 2.695 1.85 4.57 0 1.11-.314 2.152-.943 3.126-.63.975-1.376 1.77-2.239 2.387v.148c1.258.74 2.25 1.585 2.979 2.534.727.95 1.091 2.14 1.091 3.571a5.686 5.686 0 0 1-.98 3.238c-.654.974-1.573 1.738-2.757 2.293-1.184.556-2.54.833-4.07.833zm1.591-13.542c1.455-1.381 2.183-2.837 2.183-4.366 0-1.135-.333-2.06-.999-2.775-.666-.715-1.579-1.073-2.738-1.073-1.011 0-1.844.314-2.498.944-.653.629-.98 1.473-.98 2.534 0 1.16.425 2.072 1.276 2.738.852.666 2.103 1.332 3.756 1.998zm-1.517 10.841c1.258 0 2.275-.345 3.052-1.036.778-.69 1.166-1.603 1.166-2.738 0-.863-.253-1.591-.758-2.183a6.05 6.05 0 0 0-1.887-1.462c-.753-.382-1.869-.869-3.349-1.461-.863.617-1.554 1.326-2.072 2.127a4.714 4.714 0 0 0-.777 2.609c0 1.209.438 2.201 1.314 2.978.875.778 1.979 1.166 3.311 1.166z" fill="#0FF"/></g></svg>
